<svg width="1219" height="686" viewBox="0 0 1219 686" fill="none" xmlns="http://www.w3.org/2000/svg">
<g filter="url(#filter0_d_1265_12458)">
<path d="M527.262 531.219L533.063 521.17L544.667 521.17L550.468 531.219L544.667 541.268L533.063 541.268L527.262 531.219Z" stroke="#35B1FF" stroke-width="1.93281"/>
<path d="M398.259 311.406L414.093 283.98L445.762 283.98L461.597 311.406L445.762 338.832L414.093 338.832L398.259 311.406Z" stroke="#35B1FF" stroke-width="2"/>
<path d="M246.974 403.507L266.447 369.778L305.394 369.778L324.867 403.507L305.394 437.236L266.447 437.236L246.974 403.507Z" stroke="#35B1FF" stroke-width="2"/>
<path d="M662.916 330.768L690.509 282.976L745.695 282.976L773.288 330.768L745.695 378.561L690.509 378.561L662.916 330.768Z" stroke="#35B1FF" stroke-width="2"/>
<path d="M380.098 398.002L429.965 311.631L529.698 311.631L579.565 398.002L529.698 484.374L429.965 484.374L380.098 398.002Z" stroke="#35B1FF" stroke-width="2"/>
<path d="M195.876 279.692L202.123 268.872L214.616 268.872L220.863 279.692L214.616 290.511L202.123 290.511L195.876 279.692Z" stroke="#35B1FF" stroke-width="2.08104"/>
<path d="M782.956 358.661L789.203 347.841L801.696 347.841L807.943 358.661L801.696 369.48L789.203 369.48L782.956 358.661Z" stroke="#35B1FF" stroke-width="2.08104"/>
<path d="M472.642 335.43L508.365 273.556L579.81 273.556L615.533 335.43L579.81 397.303L508.365 397.303L472.642 335.43Z" stroke="#35B1FF" stroke-width="2"/>
<path d="M894.607 450.294L930.33 388.42L1001.78 388.42L1037.5 450.294L1001.78 512.167L930.33 512.167L894.607 450.294Z" stroke="#35B1FF" stroke-width="2"/>
<path d="M811.944 417.666L823.275 398.041L845.936 398.041L857.267 417.666L845.936 437.292L823.275 437.292L811.944 417.666Z" stroke="#35B1FF" stroke-width="3.77482"/>
<path d="M178.198 349.253L193.235 323.209L223.308 323.209L238.345 349.253L223.308 375.297L193.235 375.297L178.198 349.253Z" stroke="#35B1FF" stroke-width="2"/>
<path d="M101.728 218.174L137.451 156.3L208.896 156.3L244.619 218.174L208.896 280.047L137.451 280.047L101.728 218.174Z" stroke="#35B1FF" stroke-width="2"/>
<path d="M265.604 439.595L306.169 369.334L387.3 369.334L427.866 439.595L387.3 509.857L306.169 509.857L265.604 439.595Z" stroke="#35B1FF" stroke-width="2"/>
<path d="M614.812 408.998L628.996 384.43L657.365 384.43L671.549 408.998L657.365 433.566L628.996 433.566L614.812 408.998Z" stroke="#35B1FF" stroke-width="2"/>
<path d="M781.728 279.69L808.177 233.88L861.075 233.88L887.524 279.69L861.075 325.501L808.177 325.501L781.728 279.69Z" stroke="#35B1FF" stroke-width="2"/>
<path d="M248.935 278.353L258.819 261.233L278.587 261.233L288.471 278.353L278.587 295.472L258.819 295.472L248.935 278.353Z" stroke="#35B1FF" stroke-width="1.36252"/>
<path d="M790.383 506.151L794.473 499.067L802.653 499.067L806.743 506.151L802.653 513.234L794.473 513.234L790.383 506.151Z" stroke="#35B1FF" stroke-width="1.36252"/>
<path d="M516.137 212.495C515.858 212.971 516.018 213.584 516.495 213.863C516.972 214.142 517.584 213.981 517.863 213.504L516.137 212.495ZM609.137 53.4946L516.137 212.495L517.863 213.504L610.863 54.5044L609.137 53.4946Z" fill="#35B1FF"/>
<circle cx="516.5" cy="213.5" r="3.5" fill="#35B1FF"/>
<circle cx="609.5" cy="54.4995" r="3.5" fill="#35B1FF"/>
<path d="M1057.14 320.495C1056.86 320.971 1057.02 321.584 1057.5 321.863C1057.97 322.142 1058.58 321.981 1058.86 321.504L1057.14 320.495ZM1150.14 161.495L1057.14 320.495L1058.86 321.504L1151.86 162.504L1150.14 161.495Z" fill="#35B1FF"/>
<circle cx="1057.5" cy="321.5" r="3.5" fill="#35B1FF"/>
<circle cx="1150.5" cy="162.5" r="3.5" fill="#35B1FF"/>
<path d="M107.13 291.493C107.402 291.973 108.013 292.142 108.493 291.87C108.974 291.597 109.142 290.987 108.87 290.506L107.13 291.493ZM39.13 171.493L107.13 291.493L108.87 290.506L40.87 170.506L39.13 171.493Z" fill="#35B1FF"/>
<circle cx="108.5" cy="291.5" r="3.5" fill="#35B1FF"/>
<circle cx="39.5" cy="170.5" r="3.5" fill="#35B1FF"/>
<path d="M261.566 549.248C261.839 549.728 262.45 549.896 262.93 549.623C263.41 549.35 263.578 548.739 263.305 548.259L261.566 549.248ZM207.131 453.494L261.566 549.248L263.305 548.259L208.869 452.505L207.131 453.494Z" fill="#35B1FF"/>
<circle cx="262.5" cy="548.5" r="3.5" fill="#35B1FF"/>
<circle cx="207.5" cy="452.5" r="3.5" fill="#35B1FF"/>
<path d="M311.566 186.246C311.838 186.727 312.448 186.895 312.929 186.623C313.409 186.35 313.578 185.74 313.305 185.26L311.566 186.246ZM256.566 89.2462L311.566 186.246L313.305 185.26L258.305 88.2597L256.566 89.2462Z" fill="#35B1FF"/>
<circle cx="312.5" cy="185.5" r="3.5" fill="#35B1FF"/>
<circle cx="257.5" cy="88.4995" r="3.5" fill="#35B1FF"/>
<path d="M325.372 135.494C325.092 135.97 325.252 136.583 325.728 136.862C326.204 137.142 326.817 136.983 327.097 136.506L325.372 135.494ZM379.378 43.4938L325.372 135.494L327.097 136.506L381.103 44.5062L379.378 43.4938Z" fill="#35B1FF"/>
<circle cx="325.74" cy="136.5" r="3.5" fill="#35B1FF"/>
<circle cx="379.74" cy="44.5" r="3.5" fill="#35B1FF"/>
<path d="M44.3759 475.497C44.0982 475.974 44.2599 476.586 44.7372 476.864C45.2146 477.142 45.8267 476.98 46.1045 476.503L44.3759 475.497ZM115.376 353.497L44.3759 475.497L46.1045 476.503L117.105 354.503L115.376 353.497Z" fill="#35B1FF"/>
<circle cx="44.7402" cy="475.5" r="3.5" fill="#35B1FF"/>
<circle cx="115.74" cy="354.5" r="3.5" fill="#35B1FF"/>
<path d="M319.158 272.488C318.875 272.962 319.031 273.576 319.506 273.858C319.98 274.141 320.594 273.985 320.876 273.511L319.158 272.488ZM372.141 183.488L319.158 272.488L320.876 273.511L373.859 184.511L372.141 183.488Z" fill="#35B1FF"/>
<circle cx="319.5" cy="273.5" r="3.5" fill="#35B1FF"/>
<circle cx="372.5" cy="184.5" r="3.5" fill="#35B1FF"/>
<path d="M764.475 608.288C764.342 608.288 764.186 608.244 764.052 608.177C763.652 607.955 763.519 607.443 763.763 607.043L896.592 379.791C896.814 379.39 897.326 379.257 897.726 379.502C898.126 379.724 898.26 380.236 898.015 380.636L765.187 607.888C765.031 608.155 764.742 608.31 764.475 608.31V608.288Z" fill="#35B1FF"/>
<circle cx="764.5" cy="607.5" r="3.5" fill="#35B1FF"/>
<circle cx="897.5" cy="380.5" r="3.5" fill="#35B1FF"/>
</g>
<defs>
<filter id="filter0_d_1265_12458" x="-11" y="-12" width="1243" height="710" filterUnits="userSpaceOnUse" color-interpolation-filters="sRGB">
<feFlood flood-opacity="0" result="BackgroundImageFix"/>
<feColorMatrix in="SourceAlpha" type="matrix" values="0 0 0 0 0 0 0 0 0 0 0 0 0 0 0 0 0 0 127 0" result="hardAlpha"/>
<feOffset dx="1"/>
<feGaussianBlur stdDeviation="6"/>
<feComposite in2="hardAlpha" operator="out"/>
<feColorMatrix type="matrix" values="0 0 0 0 0 0 0 0 0 0.1 0 0 0 0 1 0 0 0 1 0"/>
<feBlend mode="normal" in2="BackgroundImageFix" result="effect1_dropShadow_1265_12458"/>
<feBlend mode="normal" in="SourceGraphic" in2="effect1_dropShadow_1265_12458" result="shape"/>
</filter>
</defs>
</svg>
