<svg width="1219" height="686" viewBox="0 0 1219 686" fill="none" xmlns="http://www.w3.org/2000/svg">
<g style="mix-blend-mode:overlay">
<path d="M565.391 172.399H550.675C550.555 172.399 550.453 172.331 550.401 172.229L543.035 159.478C542.983 159.375 542.983 159.255 543.035 159.153L550.401 146.402C550.453 146.299 550.572 146.231 550.675 146.231H565.391C565.511 146.231 565.614 146.299 565.665 146.402L573.032 159.153C573.083 159.255 573.083 159.375 573.032 159.478L565.665 172.229C565.614 172.331 565.494 172.399 565.391 172.399ZM550.863 171.75H565.203L572.382 159.324L565.203 146.898H550.863L543.684 159.324L550.863 171.75Z" fill="#D9D9D9"/>
</g>
<g style="mix-blend-mode:overlay">
<path d="M558.76 503.138H547.24C547.154 503.138 547.069 503.087 547.017 503.018L541.257 493.036C541.257 493.036 541.206 492.865 541.257 492.78L547.017 482.798C547.017 482.798 547.154 482.678 547.24 482.678H558.76C558.845 482.678 558.931 482.729 558.982 482.798L564.742 492.78C564.742 492.78 564.793 492.951 564.742 493.036L558.982 503.018C558.982 503.018 558.845 503.138 558.76 503.138ZM547.376 502.625H558.606L564.229 492.9L558.606 483.174H547.376L541.753 492.9L547.376 502.625Z" fill="#D9D9D9"/>
</g>
<g style="mix-blend-mode:overlay">
<path d="M431.726 348.657H363.442C362.912 348.657 362.399 348.366 362.143 347.905L327.992 288.765C327.719 288.303 327.719 287.722 327.992 287.261L362.143 228.121C362.416 227.659 362.912 227.369 363.442 227.369H431.726C432.256 227.369 432.769 227.659 433.025 228.121L467.176 287.261C467.449 287.722 467.449 288.303 467.176 288.765L433.025 347.905C432.752 348.366 432.256 348.657 431.726 348.657ZM364.314 345.648H430.854L464.133 288.013L430.854 230.377H364.314L331.035 288.013L364.314 345.648Z" fill="#D9D9D9"/>
</g>
<g style="mix-blend-mode:overlay">
<path d="M513.565 606.427H483.038C482.799 606.427 482.576 606.29 482.457 606.085L467.193 579.643C467.074 579.438 467.074 579.182 467.193 578.977L482.457 552.535C482.576 552.33 482.799 552.193 483.038 552.193H513.565C513.804 552.193 514.027 552.33 514.146 552.535L529.41 578.977C529.529 579.182 529.529 579.438 529.41 579.643L514.146 606.085C514.027 606.29 513.804 606.427 513.565 606.427ZM483.414 605.077H513.172L528.042 579.301L513.172 553.526H483.414L468.544 579.301L483.414 605.077Z" fill="#D9D9D9"/>
</g>
<g style="mix-blend-mode:overlay">
<path d="M130.219 374.415H117.178C117.075 374.415 116.973 374.363 116.921 374.278L110.392 362.98C110.341 362.894 110.341 362.775 110.392 362.689L116.921 351.391C116.973 351.306 117.075 351.254 117.178 351.254H130.219C130.322 351.254 130.424 351.306 130.476 351.391L137.005 362.689C137.056 362.775 137.056 362.894 137.005 362.98L130.476 374.278C130.424 374.363 130.322 374.415 130.219 374.415ZM117.349 373.833H130.065L136.424 362.826L130.065 351.818H117.349L110.99 362.826L117.349 373.833Z" fill="#D9D9D9"/>
</g>
<g style="mix-blend-mode:overlay">
<path d="M351.888 556.005H266.272C265.606 556.005 264.973 555.646 264.632 555.065L221.815 480.918C221.473 480.337 221.473 479.619 221.815 479.038L264.632 404.891C264.973 404.31 265.589 403.951 266.272 403.951H351.888C352.555 403.951 353.187 404.31 353.529 404.891L396.346 479.038C396.688 479.619 396.688 480.337 396.346 480.918L353.529 555.065C353.187 555.646 352.572 556.005 351.888 556.005ZM267.349 552.228H350.795L392.517 479.961L350.795 407.694H267.349L225.627 479.961L267.349 552.228Z" fill="#D9D9D9"/>
</g>
<g style="mix-blend-mode:overlay">
<path d="M398.313 178.535H345.754C345.343 178.535 344.95 178.313 344.745 177.954L318.474 132.437C318.269 132.078 318.269 131.634 318.474 131.275L344.745 85.7574C344.95 85.3985 345.343 85.1763 345.754 85.1763H398.313C398.723 85.1763 399.116 85.3985 399.321 85.7574L425.592 131.275C425.798 131.634 425.798 132.078 425.592 132.437L399.321 177.954C399.116 178.313 398.723 178.535 398.313 178.535ZM346.437 176.211H397.646L423.251 131.856L397.646 87.5008H346.437L320.833 131.856L346.437 176.211Z" fill="#D9D9D9"/>
</g>
<g style="mix-blend-mode:overlay">
<path d="M188.4 170.998H121.397C120.867 170.998 120.389 170.724 120.115 170.263L86.6142 112.234C86.3578 111.772 86.3578 111.208 86.6142 110.764L120.115 52.735C120.372 52.2735 120.867 52 121.397 52H188.4C188.93 52 189.408 52.2735 189.682 52.735L223.183 110.764C223.439 111.225 223.439 111.789 223.183 112.234L189.682 170.263C189.425 170.724 188.93 170.998 188.4 170.998ZM122.252 168.041H187.545L220.192 111.499L187.545 54.957H122.252L89.6053 111.499L122.252 168.041Z" fill="#D9D9D9"/>
</g>
<g style="mix-blend-mode:overlay">
<path d="M214.413 493.976H162.281C161.871 493.976 161.495 493.754 161.29 493.395L135.224 448.254C135.019 447.895 135.019 447.468 135.224 447.109L161.29 401.968C161.495 401.609 161.871 401.387 162.281 401.387H214.413C214.824 401.387 215.2 401.609 215.405 401.968L241.471 447.109C241.676 447.468 241.676 447.895 241.471 448.254L215.405 493.395C215.2 493.754 214.824 493.976 214.413 493.976ZM162.948 491.686H213.764L239.163 447.69L213.764 403.694H162.948L137.549 447.69L162.948 491.686Z" fill="#D9D9D9"/>
</g>
<g style="mix-blend-mode:overlay">
<path d="M310.456 424.513H253.401C252.957 424.513 252.529 424.274 252.307 423.881L223.78 374.466C223.558 374.073 223.558 373.595 223.78 373.201L252.307 323.787C252.529 323.394 252.94 323.155 253.401 323.155H310.456C310.9 323.155 311.327 323.394 311.55 323.787L340.077 373.201C340.299 373.595 340.299 374.073 340.077 374.466L311.55 423.881C311.327 424.274 310.917 424.513 310.456 424.513ZM254.136 422H309.738L337.53 373.851L309.738 325.702H254.136L226.344 373.851L254.136 422Z" fill="#D9D9D9"/>
</g>
<g style="mix-blend-mode:overlay">
<path d="M258.205 365.783H175.409C174.759 365.783 174.161 365.441 173.819 364.877L132.421 293.174C132.097 292.61 132.097 291.909 132.421 291.345L173.819 219.642C174.144 219.078 174.742 218.736 175.409 218.736H258.205C258.854 218.736 259.452 219.078 259.794 219.642L301.192 291.345C301.517 291.909 301.517 292.61 301.192 293.174L259.794 364.877C259.469 365.441 258.871 365.783 258.205 365.783ZM176.451 362.125H257.145L297.483 292.234L257.145 222.36H176.451L136.113 292.234L176.451 362.125Z" fill="#D9D9D9"/>
</g>
<g style="mix-blend-mode:overlay">
<path d="M141.619 563.765H116.083C115.878 563.765 115.69 563.663 115.587 563.492L102.819 541.374C102.717 541.203 102.717 540.981 102.819 540.81L115.587 518.692C115.69 518.522 115.878 518.402 116.083 518.402H141.619C141.824 518.402 142.012 518.504 142.115 518.692L154.883 540.81C154.985 540.981 154.985 541.203 154.883 541.374L142.115 563.492C142.012 563.663 141.824 563.765 141.619 563.765ZM116.408 562.637H141.294L153.737 541.084L141.294 519.53H116.408L103.964 541.084L116.408 562.637Z" fill="#D9D9D9"/>
</g>
<g style="mix-blend-mode:overlay">
<path d="M190.621 276.304H112.03C111.415 276.304 110.834 275.979 110.526 275.432L71.2307 207.37C70.9231 206.84 70.9231 206.174 71.2307 205.644L110.526 137.582C110.834 137.052 111.415 136.71 112.03 136.71H190.621C191.237 136.71 191.818 137.035 192.126 137.582L231.421 205.644C231.729 206.174 231.729 206.84 231.421 207.37L192.126 275.432C191.818 275.962 191.237 276.304 190.621 276.304ZM113.039 272.834H189.63L227.917 206.515L189.63 140.197H113.039L74.7518 206.515L113.039 272.834Z" fill="#D9D9D9"/>
</g>
<g style="mix-blend-mode:overlay">
<path d="M477.793 498.848H403.561C402.98 498.848 402.433 498.54 402.142 498.027L365.034 433.743C364.744 433.23 364.744 432.614 365.034 432.102L402.142 367.817C402.433 367.304 402.98 366.997 403.561 366.997H477.793C478.374 366.997 478.921 367.304 479.212 367.817L516.32 432.102C516.61 432.614 516.61 433.23 516.32 433.743L479.212 498.027C478.921 498.54 478.374 498.848 477.793 498.848ZM404.501 495.566H476.836L513.004 432.922L476.836 370.278H404.501L368.333 432.922L404.501 495.566Z" fill="#D9D9D9"/>
</g>
<g style="mix-blend-mode:overlay">
<path d="M497.105 204.72H449.486C449.11 204.72 448.768 204.515 448.58 204.19L424.77 162.946C424.582 162.622 424.582 162.229 424.77 161.904L448.58 120.66C448.768 120.335 449.11 120.13 449.486 120.13H497.105C497.481 120.13 497.823 120.335 498.011 120.66L521.821 161.904C522.009 162.229 522.009 162.622 521.821 162.946L498.011 204.19C497.823 204.515 497.481 204.72 497.105 204.72ZM450.084 202.618H496.49L519.701 162.434L496.49 122.249H450.084L426.872 162.434L450.084 202.618Z" fill="#D9D9D9"/>
</g>
<g style="mix-blend-mode:overlay">
<path d="M322.164 270.937H244.769C244.154 270.937 243.59 270.612 243.299 270.082L204.602 203.063C204.294 202.533 204.294 201.883 204.602 201.354L243.299 134.334C243.607 133.804 244.171 133.479 244.769 133.479H322.164C322.779 133.479 323.343 133.804 323.634 134.334L362.331 201.354C362.639 201.883 362.639 202.533 362.331 203.063L323.634 270.082C323.326 270.612 322.762 270.937 322.164 270.937ZM245.76 267.518H321.189L358.895 202.191L321.189 136.864H245.76L208.055 202.191L245.76 267.518Z" fill="#D9D9D9"/>
</g>
<g style="mix-blend-mode:overlay">
<path d="M273.022 114.285H261.331C261.245 114.285 261.16 114.234 261.109 114.148L255.263 104.029C255.263 104.029 255.212 103.859 255.263 103.773L261.109 93.6543C261.109 93.6543 261.245 93.5176 261.331 93.5176H273.022C273.108 93.5176 273.193 93.5689 273.244 93.6543L279.09 103.773C279.09 103.773 279.141 103.944 279.09 104.029L273.244 114.148C273.244 114.148 273.108 114.285 273.022 114.285ZM261.485 113.772H272.868L278.56 103.91L272.868 94.0474H261.485L255.793 103.91L261.485 113.772Z" fill="#D9D9D9"/>
</g>
<g style="mix-blend-mode:overlay">
<path d="M558.759 360.228H512.301C511.942 360.228 511.601 360.04 511.413 359.715L488.184 319.479C487.996 319.155 487.996 318.779 488.184 318.454L511.413 278.218C511.601 277.894 511.925 277.706 512.301 277.706H558.759C559.118 277.706 559.459 277.894 559.647 278.218L582.876 318.454C583.064 318.779 583.064 319.155 582.876 319.479L559.647 359.715C559.459 360.04 559.118 360.228 558.759 360.228ZM512.9 358.177H558.178L580.808 318.967L558.178 279.757H512.9L490.269 318.967L512.9 358.177Z" fill="#D9D9D9"/>
</g>
<g style="mix-blend-mode:overlay">
<path d="M264.034 623.229H207.116C206.672 623.229 206.261 622.989 206.022 622.596L177.563 573.302C177.341 572.909 177.341 572.43 177.563 572.054L206.022 522.759C206.244 522.366 206.654 522.127 207.116 522.127H264.034C264.478 522.127 264.888 522.366 265.128 522.759L293.587 572.054C293.809 572.447 293.809 572.926 293.587 573.302L265.128 622.596C264.905 622.989 264.495 623.229 264.034 623.229ZM207.834 620.716H263.316L291.057 572.669L263.316 524.622H207.834L180.093 572.669L207.834 620.716Z" fill="#D9D9D9"/>
</g>
<g style="mix-blend-mode:overlay">
<path d="M383.081 578.789H368.553C368.433 578.789 368.331 578.72 368.279 578.635L361.015 566.055C360.964 565.952 360.964 565.833 361.015 565.73L368.279 553.15C368.331 553.047 368.45 552.996 368.553 552.996H383.081C383.201 552.996 383.304 553.065 383.355 553.15L390.619 565.73C390.67 565.833 390.67 565.952 390.619 566.055L383.355 578.635C383.304 578.737 383.184 578.789 383.081 578.789ZM368.741 578.139H382.893L389.97 565.884L382.893 553.629H368.741L361.665 565.884L368.741 578.139Z" fill="#D9D9D9"/>
</g>
<path d="M412.988 519.548H396.399C396.11 519.548 395.82 519.392 395.687 519.125L387.392 504.759C387.236 504.493 387.236 504.181 387.392 503.914L395.687 489.549C395.843 489.282 396.11 489.126 396.399 489.126H412.988C413.277 489.126 413.566 489.282 413.7 489.549L421.995 503.914C422.15 504.181 422.15 504.493 421.995 504.759L413.7 519.125C413.544 519.392 413.277 519.548 412.988 519.548ZM396.866 517.88H412.499L420.305 504.337L412.499 490.794H396.866L389.06 504.337L396.866 517.88Z" fill="#35B1FF"/>
<path d="M500.607 322.606H457.709C457.42 322.606 457.131 322.451 456.998 322.184L435.56 285.046C435.404 284.779 435.404 284.468 435.56 284.201L456.998 247.063C457.153 246.796 457.42 246.641 457.709 246.641H500.607C500.896 246.641 501.185 246.796 501.318 247.063L522.756 284.201C522.912 284.468 522.912 284.779 522.756 285.046L501.318 322.184C501.163 322.451 500.896 322.606 500.607 322.606ZM458.199 320.938H500.118L521.088 284.623L500.118 248.308H458.199L437.228 284.623L458.199 320.938Z" fill="#35B1FF"/>
<path d="M323.814 525.886H271.932C271.643 525.886 271.354 525.73 271.22 525.463L245.291 480.542C245.135 480.275 245.135 479.964 245.291 479.697L271.22 434.776C271.376 434.509 271.643 434.354 271.932 434.354H323.814C324.103 434.354 324.392 434.509 324.525 434.776L350.455 479.697C350.611 479.964 350.611 480.275 350.455 480.542L324.525 525.463C324.37 525.73 324.103 525.886 323.814 525.886ZM272.421 524.218H323.324L348.787 480.12L323.324 436.021H272.421L246.958 480.12L272.421 524.218Z" fill="#35B1FF"/>
<path d="M403.893 471.669H326.304C326.015 471.669 325.726 471.514 325.592 471.247L286.787 404.043C286.631 403.776 286.631 403.465 286.787 403.198L325.592 335.994C325.748 335.727 326.015 335.572 326.304 335.572H403.893C404.182 335.572 404.471 335.727 404.605 335.994L443.41 403.198C443.566 403.465 443.566 403.776 443.41 404.043L404.605 471.247C404.449 471.514 404.182 471.669 403.893 471.669ZM326.771 470.002H403.404L441.72 403.643L403.404 337.284H326.771L288.455 403.643L326.771 470.002Z" fill="#35B1FF"/>
<path d="M579.019 287.426H479.037C478.748 287.426 478.458 287.27 478.325 287.003L428.334 200.408C428.178 200.141 428.178 199.83 428.334 199.563L478.325 112.967C478.481 112.701 478.748 112.545 479.037 112.545H579.019C579.309 112.545 579.598 112.701 579.731 112.967L629.723 199.563C629.878 199.83 629.878 200.141 629.723 200.408L579.731 287.003C579.575 287.27 579.309 287.426 579.019 287.426ZM479.526 285.758H578.552L628.055 200.008L578.552 114.257H479.526L430.024 200.008L479.526 285.758Z" fill="#35B1FF"/>
<path d="M224.035 289.538H207.801C207.512 289.538 207.223 289.383 207.089 289.116L198.972 275.061C198.817 274.795 198.817 274.483 198.972 274.216L207.089 260.162C207.245 259.895 207.512 259.739 207.801 259.739H224.035C224.324 259.739 224.613 259.895 224.746 260.162L232.863 274.216C233.019 274.483 233.019 274.795 232.863 275.061L224.746 289.116C224.591 289.383 224.324 289.538 224.035 289.538ZM208.29 287.871H223.545L231.173 274.661L223.545 261.452H208.29L200.662 274.661L208.29 287.871Z" fill="#35B1FF"/>
<path d="M559.875 562.357H472.213C471.923 562.357 471.634 562.201 471.501 561.934L427.669 486.013C427.514 485.746 427.514 485.435 427.669 485.168L471.501 409.247C471.657 408.98 471.923 408.824 472.213 408.824H559.875C560.165 408.824 560.454 408.98 560.587 409.247L604.419 485.168C604.574 485.435 604.574 485.746 604.419 486.013L560.587 561.934C560.431 562.201 560.165 562.357 559.875 562.357ZM472.702 560.689H559.386L602.728 485.613L559.386 410.537H472.702L429.36 485.613L472.702 560.689Z" fill="#35B1FF"/>
<path d="M525.136 397.505H497.539C497.25 397.505 496.96 397.349 496.827 397.082L483.017 373.176C482.861 372.909 482.861 372.598 483.017 372.331L496.827 348.425C496.983 348.158 497.25 348.002 497.539 348.002H525.136C525.425 348.002 525.714 348.158 525.848 348.425L539.658 372.331C539.813 372.598 539.813 372.909 539.658 373.176L525.848 397.082C525.692 397.349 525.425 397.505 525.136 397.505ZM498.006 395.837H524.647L537.968 372.776L524.647 349.715H498.006L484.685 372.776L498.006 395.837Z" fill="#35B1FF"/>
<path d="M239.555 395.681H199.682C199.392 395.681 199.103 395.526 198.97 395.259L179.044 360.723C178.889 360.456 178.889 360.145 179.044 359.878L198.97 325.342C199.126 325.075 199.392 324.919 199.682 324.919H239.555C239.844 324.919 240.133 325.075 240.266 325.342L260.192 359.878C260.347 360.145 260.347 360.456 260.192 360.723L240.266 395.259C240.111 395.526 239.844 395.681 239.555 395.681ZM200.171 394.013H239.088L258.546 360.323L239.088 326.632H200.171L180.712 360.323L200.171 394.013Z" fill="#35B1FF"/>
<path d="M250.251 580.169H167.303C167.013 580.169 166.724 580.013 166.591 579.747L125.117 507.917C124.961 507.65 124.961 507.339 125.117 507.072L166.591 435.243C166.747 434.976 167.013 434.82 167.303 434.82H250.251C250.54 434.82 250.829 434.976 250.963 435.243L292.437 507.072C292.592 507.339 292.592 507.65 292.437 507.917L250.963 579.747C250.807 580.013 250.54 580.169 250.251 580.169ZM167.77 578.501H249.762L290.747 507.495L249.762 436.488H167.77L126.785 507.495L167.77 578.501Z" fill="#35B1FF"/>
<path d="M420.331 389.788H322.283C321.994 389.788 321.705 389.632 321.571 389.365L272.558 304.46C272.402 304.193 272.402 303.882 272.558 303.615L321.571 218.71C321.727 218.443 321.994 218.287 322.283 218.287H420.331C420.62 218.287 420.909 218.443 421.042 218.71L470.055 303.615C470.211 303.882 470.211 304.193 470.055 304.46L421.042 389.365C420.887 389.632 420.62 389.788 420.331 389.788ZM322.772 388.12H419.842L468.388 304.06L419.842 219.999H322.772L274.226 304.06L322.772 388.12Z" fill="#35B1FF"/>
<path d="M307.401 200.408H294.992C294.703 200.408 294.414 200.252 294.28 199.985L288.076 189.222C287.92 188.955 287.92 188.644 288.076 188.377L294.28 177.613C294.436 177.347 294.703 177.191 294.992 177.191H307.401C307.69 177.191 307.979 177.347 308.112 177.613L314.317 188.377C314.472 188.644 314.472 188.955 314.317 189.222L308.112 199.985C307.957 200.252 307.69 200.408 307.401 200.408ZM295.459 198.74H306.911L312.649 188.821L306.911 178.903H295.459L289.721 188.821L295.459 198.74Z" fill="#35B1FF"/>
<path d="M575.62 566.937C575.486 566.937 575.33 566.893 575.197 566.826C574.797 566.604 574.663 566.092 574.908 565.692L668.353 405.8C668.597 405.399 669.109 405.266 669.487 405.51C669.887 405.733 670.021 406.244 669.776 406.645L576.331 566.537C576.176 566.804 575.886 566.96 575.62 566.96V566.937Z" fill="#35B1FF"/>
<path d="M578.955 567.849C577.91 569.651 575.597 570.251 573.818 569.206C572.039 568.161 571.416 565.848 572.461 564.069C573.507 562.268 575.819 561.667 577.598 562.712C579.377 563.758 580 566.07 578.955 567.849Z" fill="#35B1FF"/>
<path d="M672.222 408.29C673.267 406.489 672.666 404.198 670.865 403.153C669.064 402.108 666.773 402.709 665.728 404.51C664.683 406.311 665.283 408.602 667.085 409.647C668.886 410.692 671.176 410.092 672.222 408.29Z" fill="#35B1FF"/>
<path d="M272.8 262.163C272.511 262.163 272.222 262.008 272.066 261.741L202.75 141.188C202.527 140.787 202.661 140.276 203.061 140.053C203.461 139.831 203.973 139.964 204.195 140.365L273.512 260.918C273.734 261.318 273.601 261.83 273.2 262.052C273.067 262.119 272.933 262.163 272.778 262.163H272.8Z" fill="#35B1FF"/>
<path d="M275.959 259.294C277.004 261.095 276.381 263.386 274.58 264.431C272.779 265.476 270.488 264.853 269.443 263.052C268.398 261.251 269.02 258.96 270.822 257.915C272.623 256.87 274.914 257.493 275.959 259.294Z" fill="#35B1FF"/>
<path d="M206.82 139.053C205.775 137.251 203.484 136.629 201.683 137.674C199.882 138.719 199.259 141.01 200.304 142.811C201.35 144.612 203.64 145.235 205.441 144.19C207.243 143.145 207.865 140.854 206.82 139.053Z" fill="#35B1FF"/>
<path d="M349.725 552.417C349.436 552.417 349.147 552.262 348.991 551.995L293.529 455.525C293.307 455.125 293.44 454.614 293.84 454.391C294.241 454.169 294.752 454.302 294.974 454.703L350.437 551.172C350.659 551.572 350.525 552.084 350.125 552.306C349.992 552.373 349.858 552.417 349.703 552.417H349.725Z" fill="#35B1FF"/>
<path d="M352.883 549.548C353.928 551.35 353.305 553.64 351.504 554.685C349.703 555.731 347.412 555.108 346.367 553.307C345.322 551.505 345.944 549.215 347.746 548.17C349.547 547.124 351.837 547.747 352.883 549.548Z" fill="#35B1FF"/>
<path d="M297.599 453.413C296.554 451.611 294.264 450.989 292.462 452.034C290.661 453.079 290.038 455.37 291.084 457.171C292.129 458.972 294.419 459.595 296.221 458.55C298.022 457.504 298.645 455.214 297.599 453.413Z" fill="#35B1FF"/>
<path d="M423.688 264.121C423.399 264.121 423.11 263.965 422.954 263.698L367.492 167.229C367.27 166.829 367.403 166.317 367.803 166.095C368.204 165.873 368.715 166.006 368.937 166.406L424.399 262.875C424.622 263.276 424.488 263.787 424.088 264.01C423.955 264.076 423.821 264.121 423.666 264.121H423.688Z" fill="#35B1FF"/>
<path d="M426.845 261.252C427.891 263.053 427.268 265.344 425.467 266.389C423.665 267.434 421.375 266.811 420.33 265.01C419.285 263.209 419.907 260.918 421.708 259.873C423.51 258.828 425.8 259.451 426.845 261.252Z" fill="#35B1FF"/>
<path d="M371.562 165.116C370.517 163.315 368.227 162.692 366.425 163.737C364.624 164.783 364.001 167.073 365.047 168.874C366.092 170.676 368.382 171.298 370.184 170.253C371.985 169.208 372.607 166.917 371.562 165.116Z" fill="#35B1FF"/>
<path d="M437.877 153.219C437.744 153.219 437.588 153.174 437.455 153.108C437.055 152.885 436.921 152.374 437.166 151.974L490.804 60.1965C491.049 59.7963 491.538 59.6628 491.938 59.9074C492.339 60.1298 492.472 60.6413 492.227 61.0416L438.589 152.819C438.433 153.085 438.144 153.241 437.877 153.241V153.219Z" fill="#35B1FF"/>
<path d="M441.235 154.109C440.19 155.91 437.877 156.51 436.098 155.465C434.297 154.42 433.696 152.107 434.742 150.328C435.787 148.527 438.1 147.926 439.879 148.972C441.658 150.017 442.28 152.33 441.235 154.109Z" fill="#35B1FF"/>
<path d="M494.673 62.6648C495.718 60.8635 495.117 58.573 493.316 57.5278C491.515 56.4826 489.224 57.083 488.179 58.8843C487.134 60.6856 487.734 62.9761 489.536 64.0213C491.337 65.0665 493.627 64.4661 494.673 62.6648Z" fill="#35B1FF"/>
<path d="M156.539 492.24C156.406 492.24 156.25 492.196 156.117 492.129C155.717 491.906 155.583 491.395 155.828 490.995L226.479 370.13C226.701 369.73 227.212 369.596 227.613 369.841C228.013 370.086 228.146 370.575 227.902 370.975L157.251 491.84C157.095 492.107 156.806 492.262 156.539 492.262V492.24Z" fill="#35B1FF"/>
<path d="M159.875 493.152C158.83 494.953 156.517 495.553 154.738 494.508C152.959 493.463 152.336 491.15 153.381 489.371C154.426 487.57 156.739 486.969 158.518 488.015C160.297 489.06 160.92 491.373 159.875 493.152Z" fill="#35B1FF"/>
<path d="M230.347 372.598C231.392 370.797 230.791 368.507 228.99 367.461C227.189 366.416 224.898 367.017 223.853 368.818C222.808 370.619 223.408 372.91 225.21 373.955C227.011 375 229.301 374.4 230.347 372.598Z" fill="#35B1FF"/>
<path d="M266.885 369.729C266.752 369.729 266.596 369.685 266.463 369.618C266.062 369.395 265.929 368.884 266.174 368.484L318.411 279.086C318.656 278.686 319.145 278.552 319.545 278.797C319.945 279.019 320.079 279.531 319.834 279.931L267.597 369.329C267.441 369.596 267.152 369.751 266.885 369.751V369.729Z" fill="#35B1FF"/>
<path d="M270.243 370.641C269.198 372.442 266.885 373.043 265.106 371.997C263.305 370.952 262.704 368.639 263.749 366.86C264.795 365.059 267.107 364.459 268.886 365.504C270.688 366.549 271.288 368.862 270.243 370.641Z" fill="#35B1FF"/>
<path d="M322.304 281.577C323.349 279.776 322.748 277.486 320.947 276.44C319.146 275.395 316.855 275.996 315.81 277.797C314.765 279.598 315.365 281.889 317.167 282.934C318.968 283.979 321.258 283.379 322.304 281.577Z" fill="#35B1FF"/>
<path d="M532.475 332.303C532.342 332.303 532.186 332.258 532.052 332.192C531.652 331.969 531.519 331.458 531.763 331.057L664.592 103.805C664.814 103.405 665.326 103.272 665.726 103.516C666.126 103.739 666.26 104.25 666.015 104.65L533.187 331.902C533.031 332.169 532.742 332.325 532.475 332.325V332.303Z" fill="#35B1FF"/>
<path d="M535.811 333.214C534.766 335.015 532.453 335.616 530.674 334.571C528.873 333.525 528.273 331.213 529.318 329.434C530.363 327.632 532.676 327.032 534.455 328.077C536.256 329.122 536.857 331.435 535.811 333.214Z" fill="#35B1FF"/>
<path d="M668.442 106.274C669.487 104.472 668.887 102.182 667.086 101.137C665.284 100.091 662.994 100.692 661.949 102.493C660.903 104.294 661.504 106.585 663.305 107.63C665.107 108.675 667.397 108.075 668.442 106.274Z" fill="#35B1FF"/>
<path style="mix-blend-mode:color-dodge" d="M313.093 417.17C346.401 417.17 373.403 390.168 373.403 356.86C373.403 323.552 346.401 296.55 313.093 296.55C279.785 296.55 252.783 323.552 252.783 356.86C252.783 390.168 279.785 417.17 313.093 417.17Z" fill="url(#paint0_radial_1265_12458)"/>
<path style="mix-blend-mode:color-dodge" d="M318.834 377.885C346.312 326.521 363.197 281.998 356.548 278.441C349.899 274.884 322.233 313.639 294.754 365.003C267.276 416.368 250.39 460.891 257.04 464.448C263.689 468.005 291.355 429.25 318.834 377.885Z" fill="url(#paint1_radial_1265_12458)"/>
<path style="mix-blend-mode:color-dodge" d="M446.101 331.442C479.409 331.442 506.411 304.44 506.411 271.132C506.411 237.824 479.409 210.822 446.101 210.822C412.793 210.822 385.791 237.824 385.791 271.132C385.791 304.44 412.793 331.442 446.101 331.442Z" fill="url(#paint2_radial_1265_12458)"/>
<path style="mix-blend-mode:color-dodge" d="M360.725 198.857C366.062 165.979 343.735 135 310.857 129.663C277.979 124.326 247 146.653 241.663 179.531C236.326 212.409 258.653 243.388 291.531 248.725C324.409 254.062 355.388 231.735 360.725 198.857Z" fill="url(#paint3_radial_1265_12458)"/>
<path style="mix-blend-mode:color-dodge" d="M421.765 542.077C443.744 532.973 454.181 507.775 445.077 485.796C435.973 463.817 410.775 453.38 388.796 462.484C366.817 471.588 356.38 496.786 365.484 518.765C374.588 540.744 399.786 551.181 421.765 542.077Z" fill="url(#paint4_radial_1265_12458)"/>
<path style="mix-blend-mode:color-dodge" d="M311.765 494.077C333.744 484.973 344.181 459.775 335.077 437.796C325.973 415.817 300.775 405.38 278.796 414.484C256.817 423.588 246.38 448.786 255.484 470.765C264.588 492.744 289.786 503.181 311.765 494.077Z" fill="url(#paint5_radial_1265_12458)"/>
<path style="mix-blend-mode:color-dodge" d="M538.124 348.876C561.914 348.876 581.2 329.591 581.2 305.801C581.2 282.011 561.914 262.726 538.124 262.726C514.334 262.726 495.049 282.011 495.049 305.801C495.049 329.591 514.334 348.876 538.124 348.876Z" fill="url(#paint6_radial_1265_12458)"/>
<path style="mix-blend-mode:color-dodge" d="M701.659 362.633C701.759 369.203 667.406 429.695 624.92 497.759C582.435 565.822 547.93 615.638 547.829 609.068C547.729 602.498 582.083 542.005 624.568 473.942C667.053 405.878 701.559 356.063 701.659 362.633Z" fill="url(#paint7_radial_1265_12458)"/>
<path style="mix-blend-mode:color-dodge" d="M547.785 330.841C554.322 327.082 541.725 292.91 519.648 254.517C497.571 216.124 474.374 188.047 467.837 191.806C461.3 195.565 473.897 229.737 495.974 268.13C518.051 306.523 541.248 334.6 547.785 330.841Z" fill="url(#paint8_radial_1265_12458)"/>
<path style="mix-blend-mode:color-dodge" d="M345.291 586.181C351.828 582.421 342.635 554.171 324.758 523.082C306.881 491.992 287.089 469.837 280.552 473.596C274.014 477.355 283.207 505.605 301.084 536.695C318.962 567.784 338.753 589.94 345.291 586.181Z" fill="url(#paint9_radial_1265_12458)"/>
<path style="mix-blend-mode:color-dodge" d="M190.107 218.416C196.645 214.657 216.437 236.807 234.317 267.918C252.196 299.007 261.38 327.272 254.842 331.03C248.304 334.788 228.512 312.639 210.633 281.528C192.753 250.416 183.569 222.174 190.107 218.416Z" fill="url(#paint10_radial_1265_12458)"/>
<path style="mix-blend-mode:color-dodge" d="M480.46 78.9937C486.976 82.7964 478.191 109.927 460.846 139.593C443.5 169.258 424.175 190.229 417.659 186.426C411.143 182.624 419.927 155.493 437.273 125.827C454.619 96.1616 473.944 75.191 480.46 78.9937Z" fill="url(#paint11_radial_1265_12458)"/>
<path style="mix-blend-mode:color-dodge" d="M358.42 179.542C359.832 184.273 340.648 213.369 315.594 244.511C290.539 275.653 269.075 297.063 267.673 292.336C266.262 287.605 285.446 258.509 310.5 227.366C335.554 196.224 357.019 174.814 358.42 179.542Z" fill="url(#paint12_radial_1265_12458)"/>
<path style="mix-blend-mode:color-dodge" d="M289.246 357.208C306.168 328.262 314.608 301.711 308.097 297.905C301.587 294.099 282.592 314.48 265.67 343.426C248.749 372.372 240.309 398.923 246.819 402.728C253.329 406.534 272.324 386.154 289.246 357.208Z" fill="url(#paint13_radial_1265_12458)"/>
<path style="mix-blend-mode:color-dodge" d="M664.591 111.896C665.262 116.168 635.308 168.52 597.684 228.84C560.069 289.14 529.026 334.57 528.355 330.298C527.684 326.026 557.638 273.675 595.262 213.354C632.878 153.054 663.921 107.624 664.591 111.896Z" fill="url(#paint14_radial_1265_12458)"/>
<path style="mix-blend-mode:color-dodge" d="M357.569 249.296C360.909 251.001 388.572 297.816 419.364 353.869C450.145 409.907 472.395 453.962 469.054 452.258C465.714 450.553 438.051 403.738 407.258 347.684C376.478 291.646 354.228 247.591 357.569 249.296Z" fill="url(#paint15_radial_1265_12458)"/>
<path style="mix-blend-mode:color-dodge" d="M214.958 451.439C248.267 451.439 275.268 424.438 275.268 391.129C275.268 357.821 248.267 330.819 214.958 330.819C181.65 330.819 154.648 357.821 154.648 391.129C154.648 424.438 181.65 451.439 214.958 451.439Z" fill="url(#paint16_radial_1265_12458)"/>
<defs>
<radialGradient id="paint0_radial_1265_12458" cx="0" cy="0" r="1" gradientUnits="userSpaceOnUse" gradientTransform="translate(313.098 356.86) rotate(80.78) scale(60.31)">
<stop offset="0.15" stop-color="#00A78F"/>
<stop offset="0.2" stop-color="#008B77"/>
<stop offset="0.27" stop-color="#006657"/>
<stop offset="0.35" stop-color="#00463C" stop-opacity="0.63"/>
<stop offset="0.455" stop-color="#002C26" stop-opacity="0.32"/>
<stop offset="0.605" stop-color="#001815" stop-opacity="0.1"/>
<stop offset="0.73" stop-color="#000A09" stop-opacity="0"/>
<stop offset="0.86" stop-color="#000202" stop-opacity="0"/>
<stop offset="1" stop-opacity="0"/>
</radialGradient>
<radialGradient id="paint1_radial_1265_12458" cx="0" cy="0" r="1" gradientUnits="userSpaceOnUse" gradientTransform="translate(306.798 371.436) rotate(-23.2818) scale(21.6162 66.6256)">
<stop offset="0.15" stop-color="#00A78F"/>
<stop offset="0.2" stop-color="#008B77"/>
<stop offset="0.27" stop-color="#006657"/>
<stop offset="0.35" stop-color="#00463C" stop-opacity="0.63"/>
<stop offset="0.455" stop-color="#002C26" stop-opacity="0.32"/>
<stop offset="0.605" stop-color="#001815" stop-opacity="0.1"/>
<stop offset="0.73" stop-color="#000A09" stop-opacity="0"/>
<stop offset="0.86" stop-color="#000202" stop-opacity="0"/>
<stop offset="1" stop-opacity="0"/>
</radialGradient>
<radialGradient id="paint2_radial_1265_12458" cx="0" cy="0" r="1" gradientUnits="userSpaceOnUse" gradientTransform="translate(446.106 271.133) rotate(80.78) scale(60.3099 60.31)">
<stop offset="0.15" stop-color="#00A78F"/>
<stop offset="0.2" stop-color="#008B77"/>
<stop offset="0.27" stop-color="#006657"/>
<stop offset="0.35" stop-color="#00463C" stop-opacity="0.63"/>
<stop offset="0.455" stop-color="#002C26" stop-opacity="0.32"/>
<stop offset="0.605" stop-color="#001815" stop-opacity="0.1"/>
<stop offset="0.73" stop-color="#000A09" stop-opacity="0"/>
<stop offset="0.86" stop-color="#000202" stop-opacity="0"/>
<stop offset="1" stop-opacity="0"/>
</radialGradient>
<radialGradient id="paint3_radial_1265_12458" cx="0" cy="0" r="1" gradientUnits="userSpaceOnUse" gradientTransform="translate(301.195 189.189) scale(60.3099)">
<stop offset="0.15" stop-color="#00A78F"/>
<stop offset="0.2" stop-color="#008B77"/>
<stop offset="0.27" stop-color="#006657"/>
<stop offset="0.35" stop-color="#00463C" stop-opacity="0.63"/>
<stop offset="0.455" stop-color="#002C26" stop-opacity="0.32"/>
<stop offset="0.605" stop-color="#001815" stop-opacity="0.1"/>
<stop offset="0.73" stop-color="#000A09" stop-opacity="0"/>
<stop offset="0.86" stop-color="#000202" stop-opacity="0"/>
<stop offset="1" stop-opacity="0"/>
</radialGradient>
<radialGradient id="paint4_radial_1265_12458" cx="0" cy="0" r="1" gradientUnits="userSpaceOnUse" gradientTransform="translate(405.284 502.279) rotate(58.28) scale(43.0754)">
<stop offset="0.15" stop-color="#00A78F"/>
<stop offset="0.2" stop-color="#008B77"/>
<stop offset="0.27" stop-color="#006657"/>
<stop offset="0.35" stop-color="#00463C" stop-opacity="0.63"/>
<stop offset="0.455" stop-color="#002C26" stop-opacity="0.32"/>
<stop offset="0.605" stop-color="#001815" stop-opacity="0.1"/>
<stop offset="0.73" stop-color="#000A09" stop-opacity="0"/>
<stop offset="0.86" stop-color="#000202" stop-opacity="0"/>
<stop offset="1" stop-opacity="0"/>
</radialGradient>
<radialGradient id="paint5_radial_1265_12458" cx="0" cy="0" r="1" gradientUnits="userSpaceOnUse" gradientTransform="translate(295.284 454.279) rotate(58.28) scale(43.0754 43.0754)">
<stop offset="0.15" stop-color="#00A78F"/>
<stop offset="0.2" stop-color="#008B77"/>
<stop offset="0.27" stop-color="#006657"/>
<stop offset="0.35" stop-color="#00463C" stop-opacity="0.63"/>
<stop offset="0.455" stop-color="#002C26" stop-opacity="0.32"/>
<stop offset="0.605" stop-color="#001815" stop-opacity="0.1"/>
<stop offset="0.73" stop-color="#000A09" stop-opacity="0"/>
<stop offset="0.86" stop-color="#000202" stop-opacity="0"/>
<stop offset="1" stop-opacity="0"/>
</radialGradient>
<radialGradient id="paint6_radial_1265_12458" cx="0" cy="0" r="1" gradientUnits="userSpaceOnUse" gradientTransform="translate(538.128 305.801) rotate(80.78) scale(43.0754)">
<stop offset="0.15" stop-color="#00A78F"/>
<stop offset="0.2" stop-color="#008B77"/>
<stop offset="0.27" stop-color="#006657"/>
<stop offset="0.35" stop-color="#00463C" stop-opacity="0.63"/>
<stop offset="0.455" stop-color="#002C26" stop-opacity="0.32"/>
<stop offset="0.605" stop-color="#001815" stop-opacity="0.1"/>
<stop offset="0.73" stop-color="#000A09" stop-opacity="0"/>
<stop offset="0.86" stop-color="#000202" stop-opacity="0"/>
<stop offset="1" stop-opacity="0"/>
</radialGradient>
<radialGradient id="paint7_radial_1265_12458" cx="0" cy="0" r="1" gradientUnits="userSpaceOnUse" gradientTransform="translate(624.745 485.852) rotate(111.824) scale(142.185 22.7872)">
<stop offset="0.15" stop-color="#00A78F"/>
<stop offset="0.2" stop-color="#008B77"/>
<stop offset="0.27" stop-color="#006657"/>
<stop offset="0.35" stop-color="#00463C" stop-opacity="0.63"/>
<stop offset="0.455" stop-color="#002C26" stop-opacity="0.32"/>
<stop offset="0.605" stop-color="#001815" stop-opacity="0.1"/>
<stop offset="0.73" stop-color="#000A09" stop-opacity="0"/>
<stop offset="0.86" stop-color="#000202" stop-opacity="0"/>
<stop offset="1" stop-opacity="0"/>
</radialGradient>
<radialGradient id="paint8_radial_1265_12458" cx="0" cy="0" r="1" gradientUnits="userSpaceOnUse" gradientTransform="translate(507.812 261.324) rotate(58.5168) scale(79.1851 13.8277)">
<stop offset="0.15" stop-color="#00A78F"/>
<stop offset="0.2" stop-color="#008B77"/>
<stop offset="0.27" stop-color="#006657"/>
<stop offset="0.35" stop-color="#00463C" stop-opacity="0.63"/>
<stop offset="0.455" stop-color="#002C26" stop-opacity="0.32"/>
<stop offset="0.605" stop-color="#001815" stop-opacity="0.1"/>
<stop offset="0.73" stop-color="#000A09" stop-opacity="0"/>
<stop offset="0.86" stop-color="#000202" stop-opacity="0"/>
<stop offset="1" stop-opacity="0"/>
</radialGradient>
<radialGradient id="paint9_radial_1265_12458" cx="0" cy="0" r="1" gradientUnits="userSpaceOnUse" gradientTransform="translate(312.923 529.888) rotate(58.1451) scale(64.1339 13.8249)">
<stop offset="0.15" stop-color="#00A78F"/>
<stop offset="0.2" stop-color="#008B77"/>
<stop offset="0.27" stop-color="#006657"/>
<stop offset="0.35" stop-color="#00463C" stop-opacity="0.63"/>
<stop offset="0.455" stop-color="#002C26" stop-opacity="0.32"/>
<stop offset="0.605" stop-color="#001815" stop-opacity="0.1"/>
<stop offset="0.73" stop-color="#000A09" stop-opacity="0"/>
<stop offset="0.86" stop-color="#000202" stop-opacity="0"/>
<stop offset="1" stop-opacity="0"/>
</radialGradient>
<radialGradient id="paint10_radial_1265_12458" cx="0" cy="0" r="1" gradientUnits="userSpaceOnUse" gradientTransform="translate(222.478 274.723) rotate(84.3656) scale(56.2617 34.7573)">
<stop offset="0.15" stop-color="#00A78F"/>
<stop offset="0.2" stop-color="#008B77"/>
<stop offset="0.27" stop-color="#006657"/>
<stop offset="0.35" stop-color="#00463C" stop-opacity="0.63"/>
<stop offset="0.455" stop-color="#002C26" stop-opacity="0.32"/>
<stop offset="0.605" stop-color="#001815" stop-opacity="0.1"/>
<stop offset="0.73" stop-color="#000A09" stop-opacity="0"/>
<stop offset="0.86" stop-color="#000202" stop-opacity="0"/>
<stop offset="1" stop-opacity="0"/>
</radialGradient>
<radialGradient id="paint11_radial_1265_12458" cx="0" cy="0" r="1" gradientUnits="userSpaceOnUse" gradientTransform="translate(449.062 132.711) rotate(84.258) scale(53.7315 33.8202)">
<stop offset="0.15" stop-color="#00A78F"/>
<stop offset="0.2" stop-color="#008B77"/>
<stop offset="0.27" stop-color="#006657"/>
<stop offset="0.35" stop-color="#00463C" stop-opacity="0.63"/>
<stop offset="0.455" stop-color="#002C26" stop-opacity="0.32"/>
<stop offset="0.605" stop-color="#001815" stop-opacity="0.1"/>
<stop offset="0.73" stop-color="#000A09" stop-opacity="0"/>
<stop offset="0.86" stop-color="#000202" stop-opacity="0"/>
<stop offset="1" stop-opacity="0"/>
</radialGradient>
<radialGradient id="paint12_radial_1265_12458" cx="0" cy="0" r="1" gradientUnits="userSpaceOnUse" gradientTransform="translate(313.048 235.94) rotate(110.315) scale(69.1737 20.7449)">
<stop offset="0.15" stop-color="#00A78F"/>
<stop offset="0.2" stop-color="#008B77"/>
<stop offset="0.27" stop-color="#006657"/>
<stop offset="0.35" stop-color="#00463C" stop-opacity="0.63"/>
<stop offset="0.455" stop-color="#002C26" stop-opacity="0.32"/>
<stop offset="0.605" stop-color="#001815" stop-opacity="0.1"/>
<stop offset="0.73" stop-color="#000A09" stop-opacity="0"/>
<stop offset="0.86" stop-color="#000202" stop-opacity="0"/>
<stop offset="1" stop-opacity="0"/>
</radialGradient>
<radialGradient id="paint13_radial_1265_12458" cx="0" cy="0" r="1" gradientUnits="userSpaceOnUse" gradientTransform="translate(277.461 350.312) rotate(-5.50908) scale(16.6215 49.8724)">
<stop offset="0.15" stop-color="#00A78F"/>
<stop offset="0.2" stop-color="#008B77"/>
<stop offset="0.27" stop-color="#006657"/>
<stop offset="0.35" stop-color="#00463C" stop-opacity="0.63"/>
<stop offset="0.455" stop-color="#002C26" stop-opacity="0.32"/>
<stop offset="0.605" stop-color="#001815" stop-opacity="0.1"/>
<stop offset="0.73" stop-color="#000A09" stop-opacity="0"/>
<stop offset="0.86" stop-color="#000202" stop-opacity="0"/>
<stop offset="1" stop-opacity="0"/>
</radialGradient>
<radialGradient id="paint14_radial_1265_12458" cx="0" cy="0" r="1" gradientUnits="userSpaceOnUse" gradientTransform="translate(596.475 221.099) rotate(109.058) scale(124.93 25.3142)">
<stop offset="0.15" stop-color="#00A78F"/>
<stop offset="0.2" stop-color="#008B77"/>
<stop offset="0.27" stop-color="#006657"/>
<stop offset="0.35" stop-color="#00463C" stop-opacity="0.63"/>
<stop offset="0.455" stop-color="#002C26" stop-opacity="0.32"/>
<stop offset="0.605" stop-color="#001815" stop-opacity="0.1"/>
<stop offset="0.73" stop-color="#000A09" stop-opacity="0"/>
<stop offset="0.86" stop-color="#000202" stop-opacity="0"/>
<stop offset="1" stop-opacity="0"/>
</radialGradient>
<radialGradient id="paint15_radial_1265_12458" cx="0" cy="0" r="1" gradientUnits="userSpaceOnUse" gradientTransform="translate(413.313 350.777) rotate(50.6381) scale(113.06 18.7357)">
<stop offset="0.15" stop-color="#00A78F"/>
<stop offset="0.2" stop-color="#008B77"/>
<stop offset="0.27" stop-color="#006657"/>
<stop offset="0.35" stop-color="#00463C" stop-opacity="0.63"/>
<stop offset="0.455" stop-color="#002C26" stop-opacity="0.32"/>
<stop offset="0.605" stop-color="#001815" stop-opacity="0.1"/>
<stop offset="0.73" stop-color="#000A09" stop-opacity="0"/>
<stop offset="0.86" stop-color="#000202" stop-opacity="0"/>
<stop offset="1" stop-opacity="0"/>
</radialGradient>
<radialGradient id="paint16_radial_1265_12458" cx="0" cy="0" r="1" gradientUnits="userSpaceOnUse" gradientTransform="translate(214.964 391.13) rotate(80.78) scale(60.31 60.3099)">
<stop offset="0.15" stop-color="#00A78F"/>
<stop offset="0.2" stop-color="#008B77"/>
<stop offset="0.27" stop-color="#006657"/>
<stop offset="0.35" stop-color="#00463C" stop-opacity="0.63"/>
<stop offset="0.455" stop-color="#002C26" stop-opacity="0.32"/>
<stop offset="0.605" stop-color="#001815" stop-opacity="0.1"/>
<stop offset="0.73" stop-color="#000A09" stop-opacity="0"/>
<stop offset="0.86" stop-color="#000202" stop-opacity="0"/>
<stop offset="1" stop-opacity="0"/>
</radialGradient>
</defs>
</svg>
