<svg width="70" height="70" viewBox="0 0 70 70" fill="none" xmlns="http://www.w3.org/2000/svg">
<g clip-path="url(#clip0_1426_14992)">
<path d="M55.5 7L41 1V14L55.5 7Z" fill="#0AA1E1"/>
<path d="M43 68.5H68.5L50 28L42 21L49 48L38 58.5L43 68.5Z" fill="#64C8EE"/>
<path d="M20 43L27 36.5L45 69L5.5 68.5L17.5 56L20 43Z" fill="#03134A"/>
<path d="M28.5 40L42 20.5L50.5 49L38.5 60.5L28.5 40Z" fill="#1366BD"/>
<path d="M34.9375 69.9919C24.0536 69.9919 13.1697 69.9919 2.2859 69.9919C2.03236 69.9919 1.77882 69.9959 1.52731 69.9919C0.551703 69.9655 0.00406194 69.4945 5.33877e-06 68.6843C-0.00202296 67.8824 0.574014 67.3728 1.51717 67.3606C2.17434 67.3525 2.83962 67.4113 3.48868 67.3403C3.8842 67.2976 4.35071 67.1616 4.62858 66.9017C8.24301 63.5375 11.8351 60.1509 15.409 56.746C15.6909 56.476 15.8998 56.0394 15.9688 55.6496C16.7416 51.3149 17.4697 46.974 18.2506 42.6413C18.3277 42.2088 18.5954 41.7297 18.92 41.4353C21.1978 39.3867 23.512 37.3787 25.8182 35.3626C26.7675 34.5321 27.6194 34.6601 28.2481 35.7585C31.4833 41.3987 34.7123 47.0431 37.9373 52.6894C38.4322 53.5543 38.2679 54.3096 37.5357 54.7096C36.7954 55.1136 36.122 54.8659 35.6027 53.9685C32.8382 49.1972 30.0776 44.4199 27.3171 39.6466C26.589 38.3877 26.4308 38.3614 25.3659 39.3034C23.9988 40.5094 22.6115 41.6931 21.2748 42.9316C20.9706 43.2138 20.717 43.6625 20.6461 44.0706C19.924 48.2856 19.2648 52.5107 18.5326 56.7237C18.4372 57.2759 18.1269 57.885 17.7273 58.2728C15.0946 60.831 12.4091 63.3344 9.74192 65.8581C9.59386 65.9962 9.42957 66.1241 9.3099 66.2825C8.95697 66.7433 9.15169 67.2611 9.71758 67.3646C9.91433 67.4012 10.1212 67.387 10.324 67.387C20.5 67.387 30.674 67.387 40.8499 67.387C40.9757 67.387 41.1035 67.391 41.2292 67.3849C41.9756 67.3423 42.217 66.9626 41.8986 66.2764C40.994 64.3252 40.0731 62.3842 39.1624 60.4371C38.6695 59.3834 38.7243 59.0525 39.5417 58.2099C42.361 55.3004 45.1682 52.3788 48.022 49.5038C48.5899 48.9333 48.6771 48.4359 48.4621 47.6948C46.2513 40.0953 44.0709 32.4876 41.8803 24.882C41.8316 24.7114 41.8215 24.5084 41.7181 24.3805C41.5578 24.1795 41.3448 23.9176 41.1319 23.8932C40.9169 23.8689 40.5842 24.0435 40.4544 24.2343C40.0427 24.8393 39.7019 25.4931 39.3348 26.1286C37.3633 29.5477 35.3918 32.9668 33.4183 36.3858C33.2803 36.6254 33.1424 36.8752 32.9619 37.0822C32.5055 37.6101 31.8179 37.7177 31.25 37.3482C30.6719 36.9706 30.4732 36.4264 30.6861 35.7686C30.7713 35.5087 30.9255 35.2692 31.0654 35.0296C34.1647 29.7203 37.272 24.415 40.355 19.0935C40.57 18.724 40.6958 18.2469 40.6998 17.8185C40.7262 14.3486 40.71 10.8768 40.7181 7.40693C40.7222 6.2334 41.645 5.53902 42.6146 5.96539C43.1845 6.21512 43.4462 6.67804 43.4441 7.29526C43.4441 8.03024 43.436 8.76522 43.4482 9.49817C43.4624 10.3631 43.8701 10.6311 44.6733 10.2819C46.5515 9.46771 48.4297 8.65355 50.2876 7.79472C50.5817 7.65869 50.9184 7.3115 50.957 7.02523C50.9833 6.82422 50.5777 6.46485 50.2917 6.33897C47.45 5.08017 44.5901 3.85994 41.7404 2.62144C40.8378 2.22958 40.5437 1.59409 40.8824 0.824594C41.2353 0.0246438 41.9797 -0.214935 42.931 0.201283C45.5252 1.33218 48.1153 2.47322 50.7075 3.61021C52.3037 4.31067 53.9 5.01317 55.5003 5.70551C56.1352 5.9796 56.6788 6.30852 56.6808 7.1105C56.6808 7.91045 56.1453 8.24545 55.5085 8.51955C51.7723 10.1296 48.0443 11.762 44.296 13.3456C43.651 13.6177 43.4137 13.973 43.4502 14.6572C43.5009 15.5912 43.5192 16.5353 43.4462 17.4672C43.3711 18.4215 43.6794 19.128 44.3325 19.8326C46.7036 22.3989 49.0199 25.016 51.3383 27.629C51.6689 28.0006 51.9569 28.4351 52.1618 28.8878C58.0175 41.8089 63.861 54.738 69.7045 67.6651C70.3941 69.1919 69.8708 70 68.1955 70C57.1088 70 46.0221 70 34.9354 70L34.9375 69.9919ZM55.6423 67.3565C58.703 67.3565 61.7637 67.3565 64.8265 67.3565C66.1327 67.3565 66.3659 66.9951 65.8264 65.7952C60.7699 54.5451 55.6687 43.3154 50.6953 32.0288C49.6913 29.7487 48.0545 28.0534 46.4846 26.2565C46.3223 26.0697 45.8396 25.9662 45.6347 26.0738C45.4319 26.1794 45.3426 26.5936 45.3021 26.8859C45.2716 27.093 45.4035 27.3224 45.4664 27.5417C47.4358 34.4164 49.3871 41.2992 51.3971 48.1618C51.6892 49.1566 51.4863 49.8145 50.7805 50.5251C47.9632 53.3614 45.1986 56.2506 42.3935 59.1012C41.9351 59.5661 41.8337 59.9702 42.1298 60.5711C43.1135 62.5649 44.0607 64.579 44.9978 66.5972C45.2554 67.1514 45.6164 67.3748 46.2351 67.3687C49.3708 67.3443 52.5086 67.3565 55.6464 67.3565H55.6423Z" fill="#03134A"/>
</g>
<defs>
<clipPath id="clip0_1426_14992">
<rect width="70" height="70" fill="white"/>
</clipPath>
</defs>
</svg>
