<svg xmlns="http://www.w3.org/2000/svg" width="70" height="70" viewBox="0 0 70 70" fill="none">
    <style>
        .money {
            transform: translate(0rem, 0rem);
            animation: animMoney 1s cubic-bezier(0.4, 0, 1, 1) none 1;
        }

        .money {
            transform: translate(0rem, 0rem);
            animation:  animMoney 10s cubic-bezier(0.14, 0.87, 0.81, 0.2) none infinite;
        }

        .papper {
            animation:  animPapper 10s linear none infinite;
        }

        .collection :nth-child(n) {
            transition: .5s;

        }

        @keyframes animPapper {
            0% {
                opacity: 0;
            }3%, 8% {
                opacity: 1;
            }
        }

        @keyframes animMoney {
            0% {
                opacity: 0;
                transform: translate(-2.4rem, 2.2rem);
            }

            5% {
                opacity: 1;
                transform: translate(-1.5rem, 1.6rem);
            }

            5.5% {
                transform: translate(-1.5rem, 2.2rem);
            }

            6% {
                transform: translate(-1.1rem, 0.1rem);
            }

            8% {
                transform: translate(0rem, 0rem);
            }
            10%, 100%{
                
            }
        }
    </style>

    <g class="collection">
        <g class="papper">
            <path id="Vector 10"
                d="M9.81152 54.9701V12.8223H53.5399V32.8425V53.3895C53.5399 58.1311 53.5399 68.6681 45.1103 68.6681C36.6807 68.6681 36.6807 59.1848 36.6807 54.9701H9.81152Z"
                fill="#DBDBDB" />
            <path id="Vector 11"
                d="M8.2304 68.6678H45.1103C38.261 67.6141 36.681 60.765 36.681 54.9697H0.328518C-0.550113 59.5357 -0.19982 68.6678 8.2304 68.6678Z"
                fill="#C4C4C4" />
            <g id="Vector">
                <path
                    d="M24.036 24.4125C24.036 26.4493 22.3849 28.1005 20.3481 28.1005C18.3113 28.1005 16.6602 26.4493 16.6602 24.4125C16.6602 22.3758 18.3113 20.7246 20.3481 20.7246C22.3849 20.7246 24.036 22.3758 24.036 24.4125Z"
                    fill="#B3B3B3" />
                <path
                    d="M24.036 34.9495C24.036 36.9863 22.3849 38.6374 20.3481 38.6374C18.3113 38.6374 16.6602 36.9863 16.6602 34.9495C16.6602 32.9127 18.3113 31.2616 20.3481 31.2616C22.3849 31.2616 24.036 32.9127 24.036 34.9495Z"
                    fill="#B3B3B3" />
                <path
                    d="M24.036 45.4864C24.036 47.5232 22.3849 49.1744 20.3481 49.1744C18.3113 49.1744 16.6602 47.5232 16.6602 45.4864C16.6602 43.4496 18.3113 41.7985 20.3481 41.7985C22.3849 41.7985 24.036 43.4496 24.036 45.4864Z"
                    fill="#B3B3B3" />
                <path
                    d="M27.1971 24.9394C27.1971 24.3574 27.6689 23.8857 28.2508 23.8857H45.1099C45.6919 23.8857 46.1636 24.3574 46.1636 24.9394C46.1636 25.5213 45.6919 25.9931 45.1099 25.9931H28.2508C27.6689 25.9931 27.1971 25.5213 27.1971 24.9394Z"
                    fill="#B3B3B3" />
                <path
                    d="M27.1971 35.4763C27.1971 34.8944 27.6689 34.4226 28.2508 34.4226H45.1099C45.6919 34.4226 46.1636 34.8944 46.1636 35.4763C46.1636 36.0583 45.6919 36.53 45.1099 36.53H28.2508C27.6689 36.53 27.1971 36.0583 27.1971 35.4763Z"
                    fill="#B3B3B3" />
                <path
                    d="M27.1971 46.0133C27.1971 45.4313 27.6689 44.9596 28.2508 44.9596H45.1099C45.6919 44.9596 46.1636 45.4313 46.1636 46.0133C46.1636 46.5952 45.6919 47.067 45.1099 47.067H28.2508C27.6689 47.067 27.1971 46.5952 27.1971 46.0133Z"
                    fill="#B3B3B3" />
            </g>
        </g>
        <g class="money" style="">
            <circle id="Ellipse 60" cx="53.7024" cy="18.5286" r="14.3703" fill="#FBB738" />
            <path id="Vector_2"
                d="M48.6159 22.7748C48.5939 21.9328 48.9732 21.4323 49.6673 21.3867C50.3951 21.3381 50.8066 21.7591 50.9164 22.6644C51.076 23.9863 51.8931 24.9033 53.0807 25.0932C54.2596 25.2816 55.3578 24.7134 55.863 23.6536C56.6289 22.0491 55.6243 20.1708 53.8393 19.9633C52.763 19.8381 51.7057 19.7277 50.7861 19.0756C49.1972 17.9481 48.4577 16.4083 48.6379 14.4697C48.8077 12.6415 49.7493 11.2681 51.4099 10.5306C52.1201 10.2156 52.3281 9.85937 52.2753 9.13219C52.2241 8.40944 52.6297 7.95017 53.2199 7.86332C53.9799 7.74997 54.592 8.26076 54.5392 9.1057C54.4909 9.85937 54.7472 10.1611 55.4501 10.4482C57.2454 11.1812 58.1987 12.6326 58.4315 14.5551C58.537 15.428 58.1182 16.0389 57.4021 16.1198C56.6845 16.2008 56.194 15.7047 56.0973 14.798C55.948 13.3981 54.9507 12.4118 53.6416 12.3706C52.2622 12.3265 51.1595 13.2435 50.9384 14.6184C50.688 16.1758 51.9092 17.5182 53.6445 17.5918C55.7488 17.6816 57.4973 18.9608 58.1679 20.9024C59.0597 23.4828 57.7462 26.2693 55.1601 27.1776C54.6593 27.3527 54.4968 27.5883 54.5568 28.0755C54.5832 28.2831 54.5685 28.4994 54.5466 28.7085C54.4792 29.3311 54.034 29.7389 53.4278 29.7477C52.8201 29.7565 52.2314 29.3429 52.3017 28.7497C52.4306 27.6516 51.9341 27.1967 51.0101 26.7433C49.5311 26.0191 48.6554 24.3778 48.6144 22.7748H48.6159Z"
                fill="black" />
        </g>
    </g>
</svg>