<svg width="70" height="70" viewBox="0 0 70 70" fill="none" xmlns="http://www.w3.org/2000/svg">
<g clip-path="url(#clip0_1405_15074)">
<path d="M58.1324 25L32.0685 25L5.27585 25.0006C4.93748 25.0006 4.61296 25.1181 4.3737 25.3273C4.13443 25.5365 4 25.8202 4 26.116L4 52.8846C4 53.1804 4.13442 53.4641 4.37369 53.6733C4.61296 53.8825 4.93748 54 5.27585 54L58.1324 53.9994C58.4707 53.9994 58.7952 53.8819 59.0345 53.6727C59.2738 53.4635 59.4082 53.1798 59.4082 52.884L59.4082 26.1154C59.4082 25.8195 59.2738 25.5359 59.0345 25.3267C58.7952 25.1175 58.4707 25 58.1324 25Z" fill="#09500C"/>
<path d="M51.4726 48.3401C51.3055 48.4471 51.087 48.5044 50.8623 48.5L12.4895 48.5C12.2637 48.5043 12.0443 48.4464 11.877 48.3384C11.7097 48.2303 11.6074 48.0805 11.5914 47.9201C11.0003 45 9.3972 45.3372 8.46858 45C8.32907 44.9511 8.21139 44.8756 8.12869 44.7819C8.04599 44.6882 8.00153 44.5799 8.00028 44.4692L8.00028 34.6522C8.00275 34.5424 8.04779 34.4351 8.13042 34.3423C8.21305 34.2495 8.33007 34.1747 8.46858 34.1262C9.50028 33.765 11.0003 33.9995 11.6022 31.0749C11.6345 30.9177 11.7228 30.7667 11.8899 30.6597C12.0571 30.5526 12.2756 30.4954 12.5003 30.4997L31.1214 30.5554L50.7434 30.5554C50.9692 30.5511 51.1886 30.609 51.3559 30.717C51.5233 30.825 51.6256 30.9748 51.6415 31.1352C52.3023 34.2631 53.7335 33.7078 54.6621 34.045C54.8016 34.0938 54.9193 34.1693 55.002 34.2631C55.0847 34.3568 55.1292 34.465 55.1304 34.5757L55.1309 44.5C55.1284 44.6099 55.0834 44.7171 55.0007 44.8099C54.9181 44.9028 54.8011 44.9775 54.6626 45.026C53.7379 45.3632 52 45 51.7604 47.9249C51.7428 48.0844 51.6398 48.2331 51.4726 48.3401Z" fill="#37883A"/>
<path d="M61 47H70V68H61V47Z" fill="#3C3C3C"/>
<path d="M49 49.5H61L60.9998 65.5H54.9998C53.3998 65.5 52.6665 65.8333 52.4998 66C51.1665 67 48.2998 69.1 47.4998 69.5C46.6998 69.9 45.1665 69.6667 44.4998 69.5C38.9999 68.1667 26.5 65.1 20.5 63.5C14.5 61.9 13.5002 61 13.5 60.5C13.5 57.5 16 56.5 18.5 56.5H40.5C42.5 50.9 47 49.5 49 49.5Z" fill="#FFB57F"/>
<path d="M45 59L49 55L50 56C47.2 59.2 45.1667 60.6667 44.5 61C40.9 61.4 40 58.1667 40 56.5H40.5C41.3 60.1 43.8333 59.6667 45 59Z" fill="#F0A36E"/>
<path d="M63 49H65V51H63V49Z" fill="#272626"/>
<circle cx="31.5" cy="39.5" r="11.5" fill="#BC9300"/>
<path d="M32.6526 46.9649C32.6376 47.2869 32.6226 47.6185 32.6057 48H30.4145C30.392 47.6607 30.3714 47.3119 30.3489 46.9726C27.751 46.4033 26.765 45.0193 27.0612 42.3434H29.1849C29.3636 43.6864 29.761 44.4308 30.377 44.5765V41.2373C27.6985 40.5971 26.945 39.5409 27.0031 36.5621C27.0406 34.6683 28.1708 33.4683 30.3508 33.0351C30.3658 32.7131 30.3808 32.3815 30.3977 32H32.5889C32.6113 32.3393 32.632 32.6882 32.6545 33.0274C35.2468 33.5891 36.2384 34.9788 35.9422 37.6566H33.7735C33.676 36.7787 34.0247 35.6746 32.6695 35.4024C32.6695 36.5525 32.6695 37.6624 32.6695 38.7722C35.2768 39.3914 36.0397 40.4418 35.9984 43.3631C35.9703 45.3241 34.87 46.5164 32.6507 46.963L32.6526 46.9649ZM30.3602 35.4293C29.3349 35.665 29.1268 36.1174 29.2561 37.7007C29.3124 38.4004 29.6573 38.7358 30.3602 38.7607V35.4293ZM32.6432 44.5688C33.6629 44.3407 33.8766 43.8807 33.7472 42.3031C33.691 41.6015 33.3517 41.268 32.6432 41.2354V44.5688Z" fill="black"/>
<path d="M40.5 20V25H37C33.4 17.8 31.5 17 30.5 16.5C29.7 17.3 29.8333 18.1667 30 18.5L34.5 23C37 25.5 37.3333 28.8333 37 29.5C36 31.3333 33 33.7 29 28.5C25 23.3 21.6667 21.6667 20.5 21.5L17.5 20C16.5 19.6667 14.4 18.7 14 17.5C13.6 16.3 12.5 15.6667 12 15.5L0 13V0H23C26 1 32.2 3.1 33 3.5C33.8 3.9 34.3333 5 34.5 5.5L39.5 15.5C40.3 17.1 40.5 19.1667 40.5 20Z" fill="#FFB57F"/>
<path d="M30.5004 14C31.3004 13.2 31.6671 11.1667 31.5004 10.5C32.7004 11.3 32.1671 13.1667 31.5004 14C30.8337 14.8333 31.0004 16 31.5004 16.5C32.9134 17.9129 36.5 22.5 37 25H36L35.395 24.3949C33.9567 23.4191 32.5052 21.505 31.5004 20.5C31.5002 20.4998 31.5006 20.5002 31.5004 20.5L31.4989 20.4985C30.2998 19.2993 29.5 18.4996 29.5 17.5C29.5 16.5 29.7004 14.8 30.5004 14Z" fill="#F0A36E"/>
</g>
<defs>
<clipPath id="clip0_1405_15074">
<rect width="70" height="70" fill="white"/>
</clipPath>
</defs>
</svg>
