<svg width="70" height="70" viewBox="0 0 70 70" fill="none" xmlns="http://www.w3.org/2000/svg">
<g clip-path="url(#clip0_1405_15182)">
<path d="M65.1691 26.7726C65.8765 27.0167 66.4896 27.4761 66.9225 28.0865C67.3554 28.6968 67.5863 29.4275 67.5827 30.1757V66.3792C67.5827 67.3393 67.2012 68.2602 66.5223 68.9391C65.8433 69.6181 64.9225 69.9995 63.9623 69.9995H7.24361C5.32327 69.9995 3.48157 69.2367 2.12368 67.8788C0.765785 66.5209 0.00292969 64.6792 0.00292969 62.7588V23.9246C0.112255 22.0074 0.957863 20.2065 2.36324 18.8978C3.76862 17.5891 5.62515 16.8738 7.54531 16.9011H61.5488C62.5089 16.9011 63.4298 17.2826 64.1087 17.9615C64.7877 18.6405 65.1691 19.5613 65.1691 20.5215V26.7726Z" fill="#8F5C4A"/>
<path d="M35.208 0.00825855L21.6613 20.6055L7.7363 41.7792C7.56043 42.0466 7.49799 42.3729 7.56272 42.6864C7.62744 42.9998 7.81403 43.2747 8.08144 43.4506L32.2796 59.3656C32.547 59.5414 32.8734 59.6039 33.1868 59.5392C33.5003 59.4744 33.7752 59.2878 33.951 59.0204L61.4227 17.2495C61.5986 16.9821 61.661 16.6558 61.5963 16.3423C61.5316 16.0289 61.345 15.754 61.0776 15.5781L36.8794 -0.336875C36.6119 -0.512747 36.2856 -0.575188 35.9722 -0.510463C35.6587 -0.445738 35.3838 -0.259148 35.208 0.00825855Z" fill="#63A63D"/>
<path d="M53.2912 20.4577C53.3219 20.6599 53.2738 20.8662 53.1568 21.0339L34.1516 49.9315C34.0433 50.1062 33.8718 50.2323 33.6728 50.2836C33.4739 50.3349 33.2628 50.3075 33.0836 50.207C29.4465 48.0373 27.2711 48.7732 26.447 49.2422C26.3251 49.314 26.1856 49.3504 26.0442 49.3474C25.9028 49.3445 25.7651 49.3022 25.6463 49.2255L20.0101 45.5186C19.894 45.4396 19.802 45.3301 19.7442 45.2021C19.6865 45.0741 19.6651 44.9327 19.6826 44.7933C19.7848 43.8538 19.5988 41.5649 16.168 39.0817C16.0065 38.9563 15.8993 38.7737 15.8685 38.5715C15.8378 38.3693 15.8859 38.163 16.0029 37.9953L25.3159 23.8344L35.0082 9.09765C35.1165 8.92303 35.2879 8.79692 35.4869 8.74561C35.6859 8.6943 35.897 8.72174 36.0762 8.82222C39.7133 10.9919 41.8886 10.256 42.7128 9.78695C42.8346 9.71522 42.9741 9.67881 43.1155 9.68177C43.2569 9.68473 43.3947 9.72695 43.5135 9.80371L49.1496 13.5106C49.2657 13.5896 49.3577 13.6991 49.4155 13.8271C49.4733 13.9551 49.4946 14.0965 49.4772 14.2359C49.3749 15.1753 49.5609 17.4643 52.9917 19.9475C53.1533 20.0729 53.2605 20.2555 53.2912 20.4577Z" fill="#89D461"/>
<path d="M40.7859 20.391C41.8996 21.1235 43.3962 20.8144 44.1287 19.7008C44.8611 18.5871 44.5521 17.0905 43.4384 16.358C42.3247 15.6255 40.8281 15.9346 40.0956 17.0483C39.3632 18.1619 39.6722 19.6586 40.7859 20.391Z" fill="#63A63D"/>
<path d="M26.7664 41.7089C27.8801 42.4414 29.3767 42.1323 30.1091 41.0186C30.8416 39.9049 30.5326 38.4083 29.4189 37.6759C28.3052 36.9434 26.8086 37.2524 26.0761 38.3661C25.3436 39.4798 25.6527 40.9764 26.7664 41.7089Z" fill="#63A63D"/>
<circle cx="34.814" cy="28.8442" r="6.2063" transform="rotate(33.3327 34.814 28.8442)" fill="#63A63D"/>
<path d="M13.2793 2.27514V26.9279L13.28 52.2702C13.28 52.5902 13.4071 52.8972 13.6334 53.1235C13.8597 53.3498 14.1667 53.477 14.4867 53.477L43.4495 53.477C43.7695 53.477 44.0765 53.3498 44.3028 53.1235C44.5291 52.8972 44.6563 52.5902 44.6563 52.2702L44.6556 2.27514C44.6556 1.95508 44.5285 1.64813 44.3021 1.42182C44.0758 1.1955 43.7689 1.06836 43.4488 1.06836H14.4861C14.166 1.06836 13.8591 1.1955 13.6328 1.42182C13.4064 1.64813 13.2793 1.95508 13.2793 2.27514Z" fill="#63A63D"/>
<path d="M39.6244 9.42402C39.7612 9.57606 39.8344 9.77482 39.8288 9.97925L39.8292 44.5665C39.8347 44.7719 39.7607 44.9714 39.6227 45.1236C39.4847 45.2758 39.2932 45.3689 39.0883 45.3834C34.8573 45.5693 33.4441 47.3795 33.0133 48.2242C32.9509 48.3511 32.8544 48.4582 32.7346 48.5334C32.6149 48.6086 32.4765 48.6491 32.3351 48.6502H25.5892C25.4488 48.6479 25.3118 48.607 25.1932 48.5318C25.0746 48.4566 24.979 48.3502 24.917 48.2242C24.4862 47.3831 23.0731 45.5729 18.8421 45.3834C18.6382 45.3674 18.4483 45.2737 18.3115 45.1217C18.1747 44.9696 18.1016 44.7709 18.1072 44.5664L18.1067 27.6176V9.97925C18.1012 9.77386 18.1752 9.57426 18.3133 9.42206C18.4513 9.26986 18.6427 9.1768 18.8477 9.16226C23.0787 8.97642 24.4918 7.16625 24.9226 6.3215C24.9851 6.19459 25.0816 6.08755 25.2013 6.01232C25.3211 5.93709 25.4594 5.89665 25.6008 5.89551H32.3467C32.4871 5.89776 32.6242 5.93872 32.7428 6.01389C32.8614 6.08905 32.957 6.1955 33.0189 6.3215C33.4497 7.16263 34.8629 8.9728 39.0939 9.16226C39.2977 9.17828 39.4877 9.27198 39.6244 9.42402Z" fill="#89D461"/>
<path d="M29.1391 16.2392C30.4721 16.2392 31.5527 15.1586 31.5527 13.8257C31.5527 12.4927 30.4721 11.4121 29.1391 11.4121C27.8062 11.4121 26.7256 12.4927 26.7256 13.8257C26.7256 15.1586 27.8062 16.2392 29.1391 16.2392Z" fill="#63A63D"/>
<path d="M29.1391 41.7539C30.4721 41.7539 31.5527 40.6733 31.5527 39.3403C31.5527 38.0073 30.4721 36.9268 29.1391 36.9268C27.8062 36.9268 26.7256 38.0073 26.7256 39.3403C26.7256 40.6733 27.8062 41.7539 29.1391 41.7539Z" fill="#63A63D"/>
<circle cx="28.7942" cy="26.5828" r="6.2063" fill="#63A63D"/>
<path d="M66.9225 28.0869C66.4896 27.4766 64.4802 26.2109 63.4458 26.2109H0.00292969V62.7593C0.00292969 64.6796 0.765785 66.5213 2.12368 67.8792C3.48157 69.2371 5.32327 70 7.24361 70H63.9623C64.9225 70 65.8433 69.6185 66.5223 68.9396C67.2012 68.2606 67.5826 67.3398 67.5826 66.3796V30.1762C67.5863 29.4279 67.3554 28.6973 66.9225 28.0869Z" fill="#8F5C4A"/>
<path d="M65.1684 25.3489V26.7729C64.997 26.7282 64.3738 26.7256 63.9616 26.7282H8.44969C7.81017 26.7263 7.19738 26.2988 6.74516 25.8466C6.29294 25.3944 6.03804 24.7816 6.03613 24.1421C6.04087 23.5034 6.29668 22.8923 6.74828 22.4407C7.19989 21.9891 7.81104 21.7333 8.44969 21.7285H61.5481C62.5082 21.7285 63.4291 22.1099 64.108 22.7889C64.787 23.4678 65.1684 24.3887 65.1684 25.3489ZM55.5141 42.2438H67.582C68.2221 42.2438 68.836 42.4981 69.2886 42.9507C69.7412 43.4033 69.9955 44.0172 69.9955 44.6574V51.898C69.9955 52.5382 69.7412 53.1521 69.2886 53.6047C68.836 54.0573 68.2221 54.3116 67.582 54.3116H55.5141C53.9139 54.3116 52.3791 53.6759 51.2475 52.5443C50.116 51.4127 49.4802 49.878 49.4802 48.2777C49.4802 46.6774 50.116 45.1427 51.2475 44.0111C52.3791 42.8795 53.9139 42.2438 55.5141 42.2438Z" fill="#684337"/>
<path d="M57.928 49.4844H55.5144C55.1943 49.4844 54.8874 49.3572 54.6611 49.1309C54.4348 48.9046 54.3076 48.5976 54.3076 48.2776C54.3076 47.9575 54.4348 47.6506 54.6611 47.4243C54.8874 47.1979 55.1943 47.0708 55.5144 47.0708H57.928C58.248 47.0708 58.555 47.1979 58.7813 47.4243C59.0076 47.6506 59.1347 47.9575 59.1347 48.2776C59.1347 48.5976 59.0076 48.9046 58.7813 49.1309C58.555 49.3572 58.248 49.4844 57.928 49.4844Z" fill="#EFC43C"/>
</g>
<defs>
<clipPath id="clip0_1405_15182">
<rect width="70" height="70" fill="white"/>
</clipPath>
</defs>
</svg>
