<svg width="70" height="70" viewBox="0 0 70 70" fill="none" xmlns="http://www.w3.org/2000/svg">
<g filter="url(#filter0_di_1412_15015)">
<path d="M38.9561 7.74774C38.4613 9.07624 39.3868 9.53894 40.6078 10.0893C46.5028 12.7498 49.6888 17.3066 49.9807 23.7213C50.1017 26.4133 48.2613 28.3763 45.7339 28.4429C43.1673 28.5095 41.3162 26.7148 41.1525 24.0157C40.9389 20.4018 38.3616 17.7728 34.8624 17.5871C31.4521 17.4083 28.5829 19.6797 27.9529 23.0553C27.2623 26.7709 30.167 30.3988 34.0863 30.5636C37.5393 30.7108 40.7716 31.4644 43.566 33.5361C48.361 37.0869 50.5716 41.8751 49.8739 47.7114C49.1833 53.4951 45.9404 57.6489 40.4832 59.9518C39.2551 60.4706 38.7817 61.056 38.9419 62.3319C39.0344 63.054 38.949 63.8217 38.803 64.5437C38.3972 66.5593 36.5853 67.9859 34.5206 67.9999C32.4631 68.0105 30.6049 66.6013 30.2169 64.5823C30.0282 63.6078 30.0246 62.5808 30.0602 61.5818C30.0887 60.7896 29.7826 60.4636 29.0457 60.1902C23.0226 57.9328 19.0641 52.3734 19.0178 46.1831C18.9965 43.5752 20.7693 41.6332 23.2362 41.5526C25.8099 41.4685 27.7037 43.2632 27.8603 45.9377C28.0739 49.5692 30.612 52.1982 34.1077 52.405C37.5179 52.6048 40.3942 50.3579 41.0492 46.9788C41.7754 43.2176 38.8386 39.5721 34.8339 39.4284C30.1777 39.2602 26.1765 37.7389 22.9977 34.3107C15.7393 26.4834 18.7687 13.6822 28.8214 9.88245C29.7826 9.5179 30.1528 9.1148 30.0638 8.1228C29.9926 7.30257 30.0282 6.45429 30.1635 5.64457C30.5444 3.43274 32.5094 1.89042 34.6879 2.0061C37.016 2.12878 38.7781 3.88142 38.949 6.258C38.981 6.69265 38.9525 7.13081 38.9525 7.74774H38.9561Z" fill="#FBB738"/>
</g>
<defs>
<filter id="filter0_di_1412_15015" x="17" y="2" width="33" height="67" filterUnits="userSpaceOnUse" color-interpolation-filters="sRGB">
<feFlood flood-opacity="0" result="BackgroundImageFix"/>
<feColorMatrix in="SourceAlpha" type="matrix" values="0 0 0 0 0 0 0 0 0 0 0 0 0 0 0 0 0 0 127 0" result="hardAlpha"/>
<feOffset dx="-2" dy="1"/>
<feComposite in2="hardAlpha" operator="out"/>
<feColorMatrix type="matrix" values="0 0 0 0 0 0 0 0 0 0 0 0 0 0 0 0 0 0 0.25 0"/>
<feBlend mode="normal" in2="BackgroundImageFix" result="effect1_dropShadow_1412_15015"/>
<feBlend mode="normal" in="SourceGraphic" in2="effect1_dropShadow_1412_15015" result="shape"/>
<feColorMatrix in="SourceAlpha" type="matrix" values="0 0 0 0 0 0 0 0 0 0 0 0 0 0 0 0 0 0 127 0" result="hardAlpha"/>
<feOffset dy="-2"/>
<feComposite in2="hardAlpha" operator="arithmetic" k2="-1" k3="1"/>
<feColorMatrix type="matrix" values="0 0 0 0 0 0 0 0 0 0 0 0 0 0 0 0 0 0 0.25 0"/>
<feBlend mode="normal" in2="shape" result="effect2_innerShadow_1412_15015"/>
</filter>
</defs>
</svg>
