<svg width="70" height="70" viewBox="0 0 70 70" fill="none" xmlns="http://www.w3.org/2000/svg">
<g id="icon_delivery">
<g id="Group 2711">
<path id="Top" d="M26.2448 18.5062H3.02637V6.32172C3.03125 4.6466 3.69886 3.04148 4.88336 1.85699C6.06785 0.672492 7.67297 0.00488618 9.34809 0H61.5322C63.2073 0.00488618 64.8124 0.672492 65.9969 1.85699C67.1814 3.04148 67.849 4.6466 67.8539 6.32172V18.5062H44.6355H26.2448Z" fill="#C48958"/>
<path id="Box" fill-rule="evenodd" clip-rule="evenodd" d="M67.8539 18.5063C46.2447 18.5063 24.6355 18.5063 3.02637 18.5063V63.6783C3.03125 65.3535 3.69886 66.9586 4.88336 68.1431C6.06785 69.3276 7.67297 69.9952 9.34809 70.0001H61.5322C63.2073 69.9952 64.8124 69.3276 65.9969 68.1431C67.1814 66.9586 67.849 65.3535 67.8539 63.6783V18.5063ZM25.7309 39.9685C27.6512 38.0482 30.0978 36.7404 32.7614 36.2106C35.425 35.6808 38.1858 35.9527 40.6948 36.992C43.2039 38.0313 45.3484 39.7912 46.8571 42.0493C48.3659 44.3073 49.1712 46.9621 49.1712 49.6778C49.1712 52.3936 48.3659 55.0483 46.8571 57.3064C45.3484 59.5645 43.2039 61.3244 40.6948 62.3637C38.1858 63.403 35.425 63.6749 32.7614 63.1451C30.0978 62.6153 27.6512 61.3075 25.7309 59.3872C24.4558 58.1121 23.4444 56.5984 22.7543 54.9325C22.0643 53.2666 21.7091 51.481 21.7091 49.6778C21.7091 47.8746 22.0643 46.0891 22.7543 44.4232C23.4444 42.7572 24.4558 41.2435 25.7309 39.9685Z" fill="#F2D1A5"/>
<g id="check">
<g id="Group 2712">
<path id="Vector" fill-rule="evenodd" clip-rule="evenodd" d="M45.1494 39.9685C43.229 38.0482 40.7824 36.7404 38.1188 36.2106C35.4553 35.6808 32.6944 35.9527 30.1854 36.992C27.6764 38.0313 25.5319 39.7912 24.0231 42.0493C22.5143 44.3074 21.709 46.9621 21.709 49.6779C21.709 52.3936 22.5143 55.0484 24.0231 57.3064C25.5319 59.5645 27.6764 61.3244 30.1854 62.3637C32.6944 63.403 35.4553 63.6749 38.1188 63.1451C40.7824 62.6153 43.229 61.3075 45.1494 59.3872C46.4244 58.1122 47.4359 56.5985 48.1259 54.9325C48.816 53.2666 49.1711 51.4811 49.1711 49.6779C49.1711 47.8747 48.816 46.0891 48.1259 44.4232C47.4359 42.7573 46.4244 41.2435 45.1494 39.9685ZM31.7085 47.8788L33.789 49.9592L39.1746 44.5735C39.3781 44.37 39.6197 44.2086 39.8856 44.0985C40.1515 43.9884 40.4365 43.9318 40.7242 43.9318C41.012 43.9318 41.297 43.9885 41.5629 44.0987C41.8287 44.2089 42.0703 44.3703 42.2738 44.5738C42.4772 44.7774 42.6386 45.019 42.7487 45.2849C42.8588 45.5507 42.9155 45.8357 42.9154 46.1235C42.9154 46.4113 42.8587 46.6962 42.7485 46.9621C42.6384 47.228 42.4769 47.4695 42.2734 47.673C39.91 50.0365 37.5776 52.419 35.2138 54.7825C34.8017 55.1922 34.2442 55.4221 33.6631 55.4221C33.082 55.4221 32.5246 55.1922 32.1125 54.7825C31.0002 53.6701 29.8386 52.2122 28.6072 50.981C28.4014 50.7778 28.2378 50.5359 28.1258 50.2693C28.0139 50.0027 27.9558 49.7165 27.9548 49.4274C27.9539 49.1382 28.0101 48.8517 28.1204 48.5843C28.2306 48.3169 28.3926 48.074 28.5971 47.8695C28.8016 47.665 29.0445 47.503 29.3118 47.3928C29.5792 47.2825 29.8657 47.2263 30.1549 47.2272C30.4441 47.2281 30.7302 47.2862 30.9968 47.3982C31.2635 47.5101 31.5053 47.6737 31.7085 47.8795V47.8788Z" fill="#6CF5C2"/>
<path id="Vector_2" fill-rule="evenodd" clip-rule="evenodd" d="M35.4404 54.5551V63.4084C37.2474 63.4142 39.0377 63.0634 40.7088 62.376C42.3799 61.6886 43.8989 60.6781 45.1787 59.4025C46.4585 58.1269 47.4739 56.6112 48.1668 54.9424C48.8596 53.2735 49.2163 51.4843 49.2163 49.6774C49.2163 47.8704 48.8596 46.0812 48.1668 44.4124C47.4739 42.7435 46.4585 41.2278 45.1787 39.9522C43.8989 38.6766 42.3799 37.6661 40.7088 36.9787C39.0377 36.2913 37.2474 35.9405 35.4404 35.9464V48.3076L39.1749 44.573C39.3785 44.3695 39.6201 44.2081 39.886 44.098C40.1519 43.9879 40.4369 43.9313 40.7247 43.9314C41.0125 43.9314 41.2975 43.9882 41.5634 44.0983C41.8293 44.2085 42.0708 44.37 42.2743 44.5736C42.4778 44.7771 42.6392 45.0187 42.7493 45.2847C42.8594 45.5506 42.916 45.8356 42.9159 46.1234C42.9159 46.4112 42.8591 46.6962 42.7489 46.962C42.6388 47.2279 42.4773 47.4695 42.2737 47.673C39.9859 49.9602 37.7265 52.2667 35.4404 54.5551Z" fill="#00E499"/>
<path id="Vector_3" fill-rule="evenodd" clip-rule="evenodd" d="M39.1758 44.5729L33.7902 49.9587L31.7098 47.8782C31.5066 47.6725 31.2647 47.5089 30.9981 47.3969C30.7315 47.285 30.4453 47.2268 30.1561 47.2259C29.8669 47.225 29.5804 47.2813 29.3131 47.3915C29.0457 47.5018 28.8028 47.6638 28.5983 47.8683C28.3939 48.0728 28.2318 48.3157 28.1216 48.583C28.0114 48.8504 27.9551 49.1369 27.9561 49.4261C27.957 49.7153 28.0151 50.0014 28.1271 50.268C28.2391 50.5347 28.4027 50.7765 28.6085 50.9797C29.8399 52.211 31.0014 53.6688 32.1137 54.7813C32.5258 55.1909 33.0833 55.4209 33.6644 55.4209C34.2454 55.4209 34.8029 55.1909 35.215 54.7813C37.5784 52.4177 39.9108 50.0353 42.2746 47.6717C42.4781 47.4683 42.6395 47.2267 42.7496 46.9609C42.8597 46.695 42.9164 46.4101 42.9164 46.1223C42.9164 45.8346 42.8597 45.5497 42.7496 45.2838C42.6395 45.018 42.4781 44.7764 42.2746 44.5729C42.0712 44.3695 41.8296 44.2081 41.5638 44.0979C41.2979 43.9878 41.013 43.9312 40.7252 43.9312C40.4375 43.9312 40.1526 43.9878 39.8867 44.0979C39.6209 44.2081 39.3793 44.3695 39.1758 44.5729Z" fill="#ECEFF1"/>
</g>
</g>
<path id="Flag" fill-rule="evenodd" clip-rule="evenodd" d="M26.2451 0V30.8655L27.8504 29.6661L35.4405 23.9951L43.0305 29.6661L44.6359 30.8655V0H26.2451Z" fill="#D1D1D6"/>
</g>
</g>
</svg>
