<svg width="70" height="70" viewBox="0 0 70 70" fill="none" xmlns="http://www.w3.org/2000/svg">
<g clip-path="url(#clip0_1428_15005)">
<path d="M55.7023 46.9203C53.521 48.1748 51.3396 49.4272 49.1542 50.6837V50.6795C48.8446 49.9372 48.6589 49.2256 48.2833 48.6375C47.1297 46.8339 45.3714 46.1286 43.287 46.1121C40.404 46.0916 37.5231 46.0607 34.6401 46.0669C34.0809 46.0689 33.728 45.9312 33.3689 45.4541C31.3588 42.7848 28.6698 41.2589 25.3101 41.0923C23.1288 40.9833 20.9371 41.0244 18.7496 41.045C18.1718 41.0512 16.5 42 16.5 42V62.0002L18.0644 62.5536C18.4607 62.6811 18.8032 62.7922 19.1438 62.9032C24.5465 64.68 30.003 66.2244 35.6988 66.7591C38.6251 67.0326 41.4503 66.7612 44.1063 65.3998C45.2249 64.824 46.3909 64.3304 47.4743 63.697C54.1731 59.7877 60.8574 55.8557 67.5376 51.9134C67.9937 51.644 68.4188 51.278 68.7676 50.877C70.3835 49.02 70.4062 46.3198 68.8605 44.3641C67.356 42.4619 64.6381 41.8655 62.4568 43.0542C60.1805 44.2963 57.9517 45.6289 55.7023 46.9203Z" fill="#F0A36E"/>
<path d="M44.5291 4.76867C46.3452 3.31064 48.4233 2.37905 50.745 1.94308C57.9638 0.591982 65.2673 5.84215 66.2207 13.1056C66.8501 17.9157 65.3292 21.9546 61.7115 25.1791C57.6254 28.8191 53.4856 32.3973 49.3995 36.0394C47.6556 37.594 45.9923 39.2413 44.2877 40.8392C43.4312 41.6412 42.5087 41.6042 41.7266 40.7734C36.3548 35.0749 30.9685 29.3867 25.607 23.6779C22.0471 19.8878 20.8605 15.4335 22.369 10.4651C23.8508 5.58715 27.2291 2.4901 32.2191 1.3611C36.6437 0.359601 40.6246 1.45981 44.0648 4.43141C44.1803 4.53218 44.3 4.62883 44.4197 4.72549C44.4383 4.73988 44.4672 4.744 44.5312 4.76867H44.5291Z" fill="#FF0000"/>
<path d="M44.5291 4.76867C46.3452 3.31064 48.4233 2.37905 50.745 1.94308C57.9638 0.591982 65.2673 5.84215 66.2207 13.1056C66.8501 17.9157 65.3292 21.9546 61.7115 25.1791C57.6254 28.8191 53.4856 32.3973 49.3995 36.0394C47.6556 37.594 45.9923 39.2413 44.2877 40.8392C43.4312 41.6412 42.5087 41.6042 41.7266 40.7734C36.3548 35.0749 30.9685 29.3867 25.607 23.6779C22.0471 19.8878 20.8605 15.4335 22.369 10.4651C23.8508 5.58715 27.2291 2.4901 32.2191 1.3611C36.6437 0.359601 40.6246 1.45981 44.0648 4.43141C44.1803 4.53218 44.3 4.62883 44.4197 4.72549C44.4383 4.73988 44.4672 4.744 44.5312 4.76867H44.5291ZM43.0391 38.538C46.6217 35.3422 50.1651 32.1752 53.7147 29.0186C56.0363 26.9518 58.4343 24.9673 60.6838 22.8245C64.221 19.4539 64.9618 14.066 62.603 9.80291C60.238 5.52545 55.3058 3.3456 50.5242 4.44992C48.5698 4.90029 46.9003 5.84832 45.4227 7.18297C44.6447 7.88628 44.0895 7.84104 43.3528 7.10894C43.1526 6.90946 42.9628 6.69764 42.7564 6.50639C39.9663 3.91729 36.6788 2.88495 32.9476 3.65818C28.8099 4.51573 25.9743 7.02668 24.7072 11.0368C23.4215 15.1045 24.3296 18.8082 27.2703 21.9217C30.6734 25.5246 34.1611 29.0494 37.5827 32.6359C39.4421 34.5854 41.2416 36.5884 43.0412 38.538H43.0391Z" fill="#B80000"/>
<path d="M18.05 59.5488C18.0314 54.241 17.99 46.8098 18.0003 41.5H19.5003C22.1171 41.5 26.4996 43 26.4996 43C26.4996 43 30.492 45.2625 31.8747 47.5102C32.306 48.2094 32.8364 48.4912 33.6371 48.4912C36.8544 48.4829 40.0717 48.5076 43.2891 48.5158C44.2776 48.5179 45.1774 48.7585 45.9038 49.4577C46.8551 50.3749 46.8593 51.5944 45.8997 52.5033C45.1278 53.2354 44.2198 53.6303 43.1198 53.6262C38.5136 53.6077 33.9054 53.6179 29.2971 53.6179C29.0928 53.6179 28.8844 53.6097 28.6801 53.622C27.867 53.6714 27.3614 54.1423 27.3655 54.8395C27.3696 55.5366 27.8835 56.024 28.6884 56.0425C29.6418 56.0631 30.5932 56.0528 31.5466 56.0528C35.5357 56.0548 39.5269 56.0363 43.5161 56.0734C44.4819 56.0816 45.3136 55.8389 46.137 55.3557C51.808 52.0242 53.7976 48.1889 59.4996 44.9088C60.0878 44.5695 63 42 65.5 42.5C69.1226 43.2245 69.7751 45.8072 70 47C70.2043 48.0735 70 50 68 51.5C68 51.5 66.5 52.5 61.5 55.3557C56.8587 58.1031 52.664 60.2916 48 63C46.3181 63.9768 44.783 64.7144 43 65.5C40.8723 66.4357 37.7288 66.7427 35.5 66.5C29.7918 65.8769 23.4594 64.3323 18.0504 62.5C17.8296 62.426 18.05 59.7544 18.05 59.5488Z" fill="#FFB57F"/>
<path d="M0 41.5C0 38.1863 2.68629 35.5 6 35.5H12C15.3137 35.5 18 38.1863 18 41.5V62C18 65.3137 15.3137 68 12 68H6C2.68629 68 0 65.3137 0 62V41.5Z" fill="#272626"/>
<path d="M2 44C2 40.6863 4.68629 38 8 38H10C13.3137 38 16 40.6863 16 44V60C16 63.3137 13.3137 66 10 66H8C4.68629 66 2 63.3137 2 60V44Z" fill="#3B3B3B"/>
<path d="M10.216 42.8915C10.216 43.2987 10.2573 43.7121 10.2078 44.1151C10.1211 44.8143 9.59693 45.2441 8.94273 45.1804C8.25965 45.1125 7.86548 44.7054 7.83246 44.0308C7.79531 43.2679 7.80151 42.4988 7.8304 41.7338C7.85723 41.0469 8.36283 40.5554 8.9902 40.5348C9.60725 40.5143 10.1438 40.9852 10.216 41.67C10.2594 42.0731 10.2243 42.4864 10.2243 42.8936C10.2222 42.8936 10.2181 42.8936 10.216 42.8936V42.8915Z" fill="#272626"/>
</g>
<defs>
<clipPath id="clip0_1428_15005">
<rect width="70" height="70" fill="white"/>
</clipPath>
</defs>
</svg>
