<svg width="70" height="70" viewBox="0 0 70 70" fill="none" xmlns="http://www.w3.org/2000/svg">
<path d="M39.5674 38.9868C39.3921 39.1595 39.2698 39.3842 39.005 39.7475C38.7 39.3663 38.5612 39.1541 38.3859 38.9797C35.2815 35.9155 36.8874 37.5533 33.7702 34.5L26 41.9014C30.3407 46.1937 29.9638 45.7876 34.341 50.0422C37.0327 52.6586 40.9644 52.6478 43.6451 50.0188C51.9413 41.882 60.2136 33.7235 68.486 25.5633C69.8976 24.1697 69.8702 22.2959 68.4677 20.8897C67.5893 20.0104 66.6982 19.1419 65.8107 18.2716C64.0795 16.5723 62.3191 16.5759 60.5843 18.2841C53.5775 25.1839 46.5706 32.0835 39.5674 38.9868Z" fill="#60BD8E"/>
<path d="M18.7351 39.7475C18.9999 39.3842 19.1222 39.1595 19.2975 38.9868C26.3007 32.0835 33.3076 25.1839 40.3144 18.2841C42.0493 16.5759 43.8097 16.5723 45.5408 18.2716C46.4283 19.1419 47.3195 20.0104 48.1978 20.8897C49.6003 22.2959 49.6277 24.1697 48.2161 25.5633C39.9437 33.7235 31.6714 41.882 23.3753 50.0188C20.6945 52.6478 16.7628 52.6586 14.0711 50.0422C9.6939 45.7876 5.3605 41.4899 1.01979 37.1976C-0.35894 35.8328 -0.331548 33.9663 1.05266 32.5834C1.98033 31.6556 2.91896 30.7403 3.85394 29.8232C5.39885 28.3073 7.24689 28.2857 8.78997 29.7962C11.9072 32.8496 15.0116 35.9155 18.116 38.9797C18.2913 39.1541 18.4301 39.3663 18.7351 39.7475Z" fill="#8AD28C"/>
</svg>
