<svg width="70" height="70" viewBox="0 0 70 70" fill="none" xmlns="http://www.w3.org/2000/svg">
<rect x="31.8174" y="20.1606" width="33.9547" height="27.5882" rx="3.18325" fill="#3B97D3"/>
<path d="M57.0874 37.4077C55.3825 37.4077 53.6818 37.4077 51.9769 37.4077C51.0293 37.4077 50.4786 36.96 50.4786 36.2097C50.4786 35.4634 51.0253 35.0156 51.9769 35.0156C55.3825 35.0156 58.7922 35.0156 62.1978 35.0156C63.1454 35.0156 63.6961 35.4634 63.6961 36.2097C63.6961 36.9559 63.1454 37.4037 62.1978 37.4077C60.493 37.4118 58.7922 37.4077 57.0874 37.4077Z" fill="#ECF0F1"/>
<path d="M57.0445 38.6058C58.7493 38.6058 60.4501 38.6058 62.1549 38.6058C63.1025 38.6058 63.6532 39.0576 63.6492 39.8038C63.6492 40.5501 63.0944 40.9979 62.1468 40.9979C58.7412 40.9979 55.3315 40.9979 51.9259 40.9979C50.9824 40.9979 50.4316 40.5461 50.4316 39.7958C50.4316 39.0495 50.9824 38.6058 51.934 38.6058C53.6388 38.6018 55.3396 38.6058 57.0445 38.6058Z" fill="#ECF0F1"/>
<path d="M60.0692 42.2C60.7941 42.2 61.523 42.1919 62.2478 42.2C63.1225 42.2121 63.6651 42.684 63.653 43.4101C63.6408 44.1161 63.1225 44.58 62.2883 44.588C60.786 44.6001 59.2836 44.6042 57.7812 44.588C56.9632 44.58 56.4409 44.0838 56.449 43.3779C56.4611 42.676 56.9794 42.2121 57.8136 42.2C58.5668 42.1879 59.316 42.2 60.0692 42.2Z" fill="#ECF0F1"/>
<rect x="31.8174" y="24.4048" width="33.9547" height="4.24433" fill="#464F5D"/>
<rect x="35.001" y="35.0156" width="11.6719" height="9.54975" rx="1.06108" fill="#F3D55B"/>
<path d="M15.3038 0.000556111C12.4044 0.000556111 9.55358 0.000556111 6.6987 0.000556111C4.79139 0.000556111 4.22852 0.557231 4.22852 2.44105C4.22852 23.9779 4.22852 45.5148 4.22852 67.0557C4.22852 68.9033 4.80354 69.4842 6.63391 69.4842C17.8591 69.4842 29.0802 69.4842 40.3054 69.4842C42.1357 69.4842 42.7107 68.9033 42.7107 67.0557C42.7107 45.5189 42.7107 23.982 42.7107 2.44105C42.7107 2.19095 42.7229 1.94085 42.6986 1.69075C42.6176 0.754892 41.9332 0.0247591 40.9897 0.0166913C37.8878 -0.0115459 34.7819 0.00458966 31.6314 0.00458966C31.3155 1.23089 31.0158 2.43702 30.7 3.63508C30.4692 4.5185 30.125 4.78877 29.2138 4.78877C25.379 4.79281 21.5482 4.79281 17.7133 4.78877C16.8022 4.78877 16.462 4.52254 16.2312 3.63508C15.9153 2.43702 15.6157 1.23492 15.2998 0.000556111H15.3038Z" fill="#0178BB"/>
<path d="M23.4631 68.2865C21.9608 68.2865 20.4584 68.2905 18.956 68.2865C18.0125 68.2865 17.4618 67.8306 17.4658 67.0844C17.4658 66.3381 18.0166 65.8944 18.9682 65.8944C21.9729 65.8944 24.9817 65.8903 27.9864 65.8944C28.934 65.8944 29.4847 66.3462 29.4807 67.0965C29.4807 67.8427 28.9259 68.2865 27.9783 68.2905C26.4759 68.2945 24.9736 68.2905 23.4712 68.2905L23.4631 68.2865Z" fill="#464F5D"/>
<path d="M18.3977 2.36453C18.2074 1.61826 18.0171 0.85586 17.8105 0.0410156H23.4697H29.1248C28.9223 0.851826 28.7361 1.59809 28.5457 2.36453H18.3977Z" fill="#464F5D"/>
<circle cx="22.7983" cy="34.4853" r="14.3246" fill="#4FBA6F"/>
<path d="M20.7503 38.7683C22.2688 37.2556 23.7509 35.7752 25.2371 34.2948C26.2454 33.2903 27.2497 32.2778 28.2661 31.2774C28.9019 30.6562 29.5984 30.6078 30.1167 31.1282C30.635 31.6445 30.5905 32.3424 29.9628 32.9757C27.278 35.6622 24.5851 38.3448 21.8882 41.0192C21.1998 41.705 20.6976 41.7252 19.908 41.1403C18.4623 40.0672 17.0207 38.9902 15.5831 37.9091C14.8097 37.3282 14.6355 36.6747 15.081 36.0656C15.5264 35.4525 16.2229 35.4121 16.9923 35.9729C18.2355 36.8885 19.4747 37.8163 20.7543 38.7724L20.7503 38.7683Z" fill="white"/>
<path d="M20.7503 38.7683C22.2688 37.2556 23.7509 35.7752 25.2371 34.2948C26.2454 33.2903 27.2497 32.2778 28.2661 31.2774C28.9019 30.6562 29.5984 30.6078 30.1167 31.1282C30.635 31.6445 30.5905 32.3424 29.9628 32.9757C27.278 35.6622 24.5851 38.3448 21.8882 41.0192C21.1998 41.705 20.6976 41.7252 19.908 41.1403C18.4623 40.0672 17.0207 38.9902 15.5831 37.9091C14.8097 37.3282 14.6355 36.6747 15.081 36.0656C15.5264 35.4525 16.2229 35.4121 16.9923 35.9729C18.2355 36.8885 19.4747 37.8163 20.7543 38.7724L20.7503 38.7683Z" fill="white"/>
</svg>
