<svg width="70" height="70" viewBox="0 0 70 70" fill="none" xmlns="http://www.w3.org/2000/svg">
<g clip-path="url(#clip0_1412_15018)">
<circle cx="35" cy="35" r="34" fill="url(#paint0_linear_1412_15018)"/>
<circle cx="35" cy="35" r="25" fill="#1366BD"/>
<circle cx="35" cy="35" r="14" fill="#03134A"/>
<g opacity="0.11">
<path d="M32.8229 69.9997C31.5891 69.8272 30.3429 69.7108 29.1214 69.4753C16.6929 67.0737 7.83443 60.1004 2.77183 48.5075C-3.0138 35.2564 0.489074 19.2437 11.1223 9.45673C16.9066 4.13057 23.7069 1.03756 31.5137 0.191399C36.1902 -0.315202 40.7845 0.194138 45.2815 1.56744C46.2757 1.8714 46.7495 2.56147 46.655 3.49389C46.5742 4.28802 45.9648 4.93155 45.1391 5.00685C44.8118 5.03697 44.4612 4.95756 44.1367 4.86582C33.9649 2.0179 24.534 3.59658 16.0493 9.88665C9.42154 14.8007 5.38187 21.4659 3.99332 29.6058C2.36512 39.149 4.6917 47.7462 10.843 55.2042C15.7344 61.1342 22.0664 64.7844 29.6596 66.0331C39.8012 67.7008 48.8337 65.1035 56.3502 58.1206C64.246 50.7844 67.4682 41.5629 66.1906 30.8394C65.9906 29.1553 65.5209 27.5 65.1224 25.8446C64.839 24.6644 65.2471 23.695 66.2399 23.417C67.2587 23.1322 68.1378 23.695 68.4843 24.8643C69.2251 27.3589 69.7195 29.9001 69.8879 32.5002C69.9002 32.7001 69.9605 32.8973 69.9988 33.0958V36.9227C69.9605 37.1213 69.9153 37.3184 69.8865 37.5183C69.6537 39.1367 69.5045 40.7729 69.1799 42.3735C66.4014 56.101 54.8713 67.186 41.0323 69.463C39.7574 69.6725 38.4743 69.8231 37.1953 70.0011H32.8215L32.8229 69.9997Z" fill="black" fill-opacity="0.41"/>
<path d="M35.1606 59.4324C23.2511 59.3174 13.0656 50.7079 11.0732 38.9548C8.77536 25.4011 18.1214 12.6225 31.7631 10.733C33.3092 10.5194 34.8949 10.5728 36.4642 10.5605C37.3612 10.5536 38.0363 10.989 38.3403 11.8749C38.7484 13.0647 37.8405 14.1751 36.5231 14.0615C32.5273 13.7164 28.7847 14.5886 25.2654 16.4425C17.7612 20.3954 13.3984 28.6913 14.3419 37.1474C15.4073 46.7003 22.6321 54.1747 32.1863 55.6069C43.47 57.2978 54.2265 49.2607 55.793 37.9156C55.9902 36.4847 55.9546 35.0142 55.9354 33.5643C55.9204 32.473 56.4887 31.6446 57.5075 31.5269C58.5181 31.4105 59.4328 32.1321 59.4274 33.2754C59.4164 35.2497 59.5082 37.2761 59.1069 39.1862C56.9392 49.5318 50.6592 56.0587 40.419 58.6876C38.7141 59.1257 36.9161 59.1928 35.1606 59.4324Z" fill="black" fill-opacity="0.41"/>
<path d="M21.1409 34.8979C21.1929 27.4467 27.0155 21.3237 34.4512 20.9526C34.6785 20.9417 34.9072 20.9335 35.1346 20.9444C36.1068 20.9965 36.8312 21.7084 36.8627 22.634C36.8942 23.5308 36.2574 24.2716 35.3071 24.4071C34.4074 24.5358 33.4845 24.5481 32.6067 24.759C27.7536 25.9283 24.3069 30.5877 24.6766 35.4168C25.0847 40.7498 28.9518 44.7971 34.1089 45.2887C40.1123 45.861 45.3049 41.3522 45.5569 35.3374C45.5884 34.5802 45.6911 33.871 46.3963 33.4315C46.9605 33.0796 47.563 33.0522 48.1505 33.3712C48.8174 33.7341 49.0926 34.3324 49.0748 35.0745C48.9941 38.351 47.9903 41.3166 45.8363 43.7935C42.0006 48.2037 37.1311 49.8303 31.5057 48.3146C25.9104 46.8071 22.5636 42.9583 21.3915 37.2721C21.2312 36.4971 21.2217 35.6906 21.1409 34.8992V34.8979Z" fill="black" fill-opacity="0.41"/>
</g>
<path d="M51.3125 24.4823C51.3139 24.4823 51.3153 24.4823 51.3166 24.4823L51.3125 24.4837V24.4823C50.2222 24.4816 49.0163 24.1898 48.0753 24.5659C47.1592 24.9314 46.5115 25.9775 45.7542 26.7333C42.6923 29.7907 39.6317 32.8495 36.5766 35.9137C36.0275 36.4641 35.4236 36.8133 34.6239 36.5764C33.4188 36.2204 32.9806 34.8252 33.7585 33.8312C33.9255 33.6176 34.1268 33.4287 34.3199 33.2356C37.894 29.6593 41.4626 26.0788 45.0517 22.5189C45.442 22.1328 45.5968 21.7481 45.5858 21.2045C45.5543 19.4971 45.5858 17.7884 45.5694 16.081C45.5625 15.3553 45.7953 14.772 46.3184 14.2517L56.319 4.25253C56.9393 3.62817 57.6227 3.32558 58.4676 3.67199C59.2988 4.01292 59.5357 4.71394 59.5261 5.55873C59.511 6.97037 59.5494 8.38338 59.5083 9.79365C59.4919 10.3797 59.6932 10.5221 60.2464 10.5084C61.6568 10.4728 63.07 10.5084 64.4819 10.4919C65.3323 10.4824 66.0224 10.7398 66.3538 11.5709C66.6784 12.3869 66.399 13.0646 65.7937 13.6671L55.7466 23.7183C55.2468 24.2208 54.6799 24.4563 53.9774 24.4426C53.09 24.4248 52.2013 24.4385 51.3125 24.4385V24.4823Z" fill="#0AA1E1"/>
<path d="M53.3229 20.9223C51.9385 20.9538 50.5527 20.9388 49.0806 20.9388H49.082C49.082 19.4778 49.0738 18.1141 49.0916 16.7504C49.0943 16.5697 49.1874 16.3465 49.3148 16.2178L55.8358 9.69632C55.8645 9.66757 55.9138 9.66209 56.0535 9.60596C56.0535 10.4275 56.048 11.2106 56.0535 11.9925C56.0617 13.2918 56.7286 13.9559 58.035 13.9682C58.8032 13.9737 59.5714 13.9682 60.4615 13.9682C60.2862 14.1859 60.1945 14.3269 60.0781 14.4433L53.9392 20.5746C53.7762 20.7375 53.5325 20.9182 53.3229 20.9223Z" fill="url(#paint1_linear_1412_15018)"/>
</g>
<defs>
<linearGradient id="paint0_linear_1412_15018" x1="51.3702" y1="0.999991" x2="-17.9325" y2="43.3914" gradientUnits="userSpaceOnUse">
<stop offset="0.0635936" stop-color="#64C9EE"/>
<stop offset="0.32" stop-color="#0071AC"/>
<stop offset="0.645" stop-color="#002F6B"/>
</linearGradient>
<linearGradient id="paint1_linear_1412_15018" x1="60.5884" y1="9.6831" x2="59.3523" y2="19.0182" gradientUnits="userSpaceOnUse">
<stop offset="0.137971" stop-color="#00559F"/>
<stop offset="0.390766" stop-color="#024D9C"/>
<stop offset="0.75075" stop-color="#041C54"/>
</linearGradient>
<clipPath id="clip0_1412_15018">
<rect width="70" height="70" fill="white"/>
</clipPath>
</defs>
</svg>
