<svg width="146" height="118" viewBox="0 0 146 118" fill="none" xmlns="http://www.w3.org/2000/svg">
<path fill-rule="evenodd" clip-rule="evenodd" d="M75.9524 52.8257L74.432 52.8414L75.9524 49.6745L76.8068 47.8815L77.4602 52.8123L75.9524 52.8257ZM82.4736 52.3775L80.7983 42.9238H74.5765L67.1799 56.9272L66.4302 58.3415H71.7996L72.6373 56.6247L75.9712 56.6023L77.9439 56.5866L78.1533 58.3549H83.5291L82.482 52.3864L82.4736 52.3775Z" fill="#999999"/>
<path fill-rule="evenodd" clip-rule="evenodd" d="M59.7352 46.2319C61.0398 46.2162 62.0199 46.7003 62.0387 48.1952L63.8732 48.2109L67.0145 48.2266H67.737C67.8428 47.6285 67.8357 47.0138 67.7162 46.4187C67.5967 45.8236 67.3672 45.2601 67.0411 44.7613C66.715 44.2626 66.299 43.8387 65.8175 43.5147C65.3361 43.1906 64.7989 42.9729 64.2376 42.8744C64.1182 42.8237 63.9948 42.7839 63.869 42.7557C60.4716 41.8283 56.8708 42.3397 53.817 44.1833C52.33 45.475 51.2148 47.1907 50.6004 49.1321C49.986 51.0735 49.8974 53.1613 50.3449 55.1543C51.6998 59.9641 60.4786 59.7848 63.3287 56.916L63.3916 56.9317L63.691 58.3145L63.8586 58.3302H65.8313L66.9977 51.8305L67.4291 49.5332H67.0103L63.869 49.5624H60.2063L59.6221 53.0251L61.6911 53.0408L61.6702 53.1305C61.2357 53.9048 60.5677 54.4975 59.7762 54.8108C58.9847 55.1241 58.1171 55.1393 57.3164 54.854C55.5112 54.3699 55.0316 52.6127 55.6766 49.9232C55.7879 48.8725 56.27 47.907 57.0245 47.2242C57.7789 46.5413 58.7486 46.1928 59.7352 46.2498V46.2319Z" fill="#999999"/>
<path fill-rule="evenodd" clip-rule="evenodd" d="M41.4757 52.8031L39.9554 52.8322L41.4757 49.5667L42.3783 47.6258L43.0066 52.8076H41.4757V52.8031ZM46.33 42.9258H46.0662L41.4757 42.9102H40.1083L33.5305 55.3155L31.9473 58.3076L33.5305 58.3233H37.3L38.1376 56.6065L41.4716 56.5617H43.4443L43.6537 58.3233H49.0294L46.3217 42.9146L46.33 42.9258Z" fill="#999999"/>
<path fill-rule="evenodd" clip-rule="evenodd" d="M29.8223 48.1114C29.7854 48.3932 29.7055 48.6666 29.5856 48.9205C29.4167 49.1983 29.1829 49.424 28.9075 49.5753C28.632 49.7267 28.3243 49.7984 28.015 49.7834L24.5429 49.7677L25.0769 46.5268H28.4946C28.8871 46.4955 29.2763 46.6227 29.5856 46.8832C29.715 47.0517 29.8042 47.2513 29.8454 47.4649C29.8866 47.6785 29.8787 47.9019 29.8223 48.1114ZM33.663 43.3756C32.9937 43.0497 32.2665 42.8823 31.5311 42.8848H20.6414L17.9253 58.3181H22.9681L23.8371 53.5017H29.8307C30.5551 53.4895 31.2692 53.3154 31.927 52.9904C32.5848 52.6654 33.1719 52.1967 33.6504 51.6145C34.4542 50.6302 34.971 49.4155 35.1373 48.1204C35.5059 45.4309 34.8734 44.0323 33.6714 43.3846L33.663 43.3756Z" fill="#999999"/>
<path fill-rule="evenodd" clip-rule="evenodd" d="M122.242 85.4985C121.189 86.377 119.943 86.9505 118.623 87.1637C117.512 87.4672 116.345 87.4488 115.243 87.1105C114.141 86.7721 113.143 86.126 112.351 85.2385C110.63 82.9188 111.053 77.3672 113.189 73.4786C113.954 72.1223 115.042 71.0074 116.341 70.2475C117.641 69.4877 119.105 69.11 120.585 69.1529C121.329 69.082 122.078 69.1904 122.777 69.4699C123.477 69.7495 124.109 70.1932 124.627 70.7685C125.145 71.3438 125.537 72.036 125.772 72.7943C126.008 73.5526 126.081 74.3577 125.988 75.1505C126.057 77.0562 125.761 78.9569 125.117 80.7351C124.473 82.5133 123.495 84.1314 122.244 85.4895L122.242 85.4985ZM121.075 61.0687C120.238 61.0687 119.435 61.0911 118.652 61.1494C108.617 61.7971 102.249 66.887 100.36 78.8688C100.264 79.395 100.194 79.9261 100.15 80.4601C99.8906 82.534 99.9614 84.64 100.36 86.6886C101.664 92.8139 106.785 95.8531 117.741 95.3488C118.047 95.3488 118.338 95.3264 118.623 95.2973C129.693 94.524 135.11 88.69 136.93 78.0597C139.014 65.1119 133.11 60.7415 121.075 61.0687Z" fill="#999999"/>
<path fill-rule="evenodd" clip-rule="evenodd" d="M89.4113 77.3638C88.7244 82.0704 86.8627 85.578 82.2911 86.1047C82.0817 86.1271 81.889 86.1428 81.6859 86.1562L75.7971 86.1719L75.0809 86.1876L75.7971 82.1668L77.8452 70.2881H84.4355C88.1925 70.5413 90.027 72.6437 89.4092 77.3727L89.4113 77.3638ZM100.406 69.2392C99.1199 63.45 94.364 61.8654 86.5569 62.2083H75.8055L68.7774 62.224L67.0058 72.2357L63.8519 90.2533L63.1504 94.2606H84.1109C92.2782 94.2091 98.3513 89.8296 100.362 77.6103L100.41 77.3212C100.881 74.6553 100.881 71.9185 100.41 69.2526L100.406 69.2392Z" fill="#999999"/>
<path fill-rule="evenodd" clip-rule="evenodd" d="M29.4404 62.1602L1.52089 62.1445L0.14502 70.1907L9.84731 70.2064L5.62546 94.1722L16.1193 94.1946L20.3559 70.2019H30.1754L31.5303 62.1513L29.4404 62.1602Z" fill="#999999"/>
<path fill-rule="evenodd" clip-rule="evenodd" d="M49.5868 85.449C48.5552 86.3123 47.3376 86.8849 46.0456 87.1142C44.5056 87.4314 42.913 87.2712 41.4552 86.6525C40.7572 86.3427 40.1502 85.8371 39.6982 85.189C37.9768 82.8693 38.6636 76.8784 40.7955 72.983C40.9973 72.6292 41.2197 72.2893 41.4615 71.9655C42.6149 70.4697 44.2552 69.4974 46.0519 69.2446C46.6808 69.1339 47.3186 69.0918 47.9555 69.1191C48.697 69.0477 49.4441 69.1554 50.1415 69.4344C50.8389 69.7134 51.4689 70.1564 51.9849 70.7308C52.5009 71.3052 52.8898 71.9963 53.1228 72.7531C53.3558 73.5099 53.427 74.3131 53.3312 75.1033C53.4066 77.009 53.1137 78.9108 52.4709 80.6898C51.828 82.4688 50.8491 84.0867 49.5952 85.4422L49.5868 85.449ZM63.9905 68.4153C62.1707 62.848 56.7615 60.8197 48.4204 61.0349C47.6016 61.0349 46.8309 61.0573 46.0519 61.1088C44.5109 61.2006 42.9796 61.4292 41.474 61.7924C38.524 62.4201 35.7823 63.8741 33.5287 66.006C31.7558 67.7657 30.3604 69.9159 29.4388 72.3084C28.4382 74.9062 27.7812 77.6408 27.4871 80.433C26.8532 83.9869 27.5545 87.665 29.4388 90.6688C30.5135 92.0905 31.9201 93.183 33.5162 93.8358C36.0584 94.8273 38.7411 95.3428 41.4468 95.3598C42.586 95.3979 43.8006 95.389 45.0865 95.3083C45.4194 95.3083 45.7147 95.2859 46.0246 95.2859C56.5248 94.5126 61.9089 89.2143 63.9842 79.5499C64.0806 79.0524 64.1937 78.5548 64.2837 78.0259C64.9465 74.8492 64.8435 71.5444 63.9842 68.4221L63.9905 68.4153Z" fill="#999999"/>
<path fill-rule="evenodd" clip-rule="evenodd" d="M6.57076 106.958H7.74349C8.4549 107.022 9.16722 106.845 9.77903 106.451C9.97912 106.291 10.1473 106.089 10.2739 105.858C10.4005 105.627 10.4828 105.372 10.5162 105.106C10.552 104.875 10.5433 104.639 10.4907 104.412C10.4382 104.184 10.3428 103.971 10.2104 103.784C9.96707 103.565 9.68404 103.403 9.37914 103.307C9.07424 103.211 8.75406 103.183 8.43876 103.226H7.05661L6.57076 106.971V106.958ZM2.66094 99.8305H10.6753C11.3548 99.7575 12.041 99.8396 12.6886 100.071C13.3363 100.303 13.9306 100.679 14.4323 101.175C14.8304 101.702 15.1125 102.318 15.2575 102.978C15.4025 103.638 15.4068 104.324 15.2699 104.985C15.1098 106.523 14.4035 107.936 13.2972 108.932C11.9946 109.964 10.3932 110.47 8.77592 110.36H6.12051L5.32263 116.575H0.445312L2.66094 99.8507V99.8305Z" fill="#999999"/>
<path fill-rule="evenodd" clip-rule="evenodd" d="M23.8369 110.192L22.9071 104.172L20.3941 110.192H23.8369ZM24.3646 113.805H18.8737L17.7554 116.571L12.8174 116.555L20.9093 99.8311H26.1677L29.8409 116.571H24.7877L24.3563 113.805H24.3646Z" fill="#999999"/>
<path fill-rule="evenodd" clip-rule="evenodd" d="M37.602 106.602H39.6501C40.0912 106.578 40.5286 106.503 40.9547 106.378C41.2874 106.317 41.5896 106.133 41.8092 105.858C42.0409 105.59 42.1913 105.253 42.2406 104.892C42.2896 104.672 42.286 104.442 42.23 104.224C42.1739 104.006 42.0674 103.806 41.9201 103.644C41.4065 103.287 40.792 103.135 40.1841 103.213H38.0522L37.5999 106.595L37.602 106.602ZM31.4409 116.569L33.6419 99.8291L41.7044 99.8582C42.839 99.811 43.9738 99.9439 45.0719 100.253C45.8073 100.502 46.4226 101.049 46.787 101.777C47.1805 102.614 47.3098 103.566 47.1556 104.489C47.0534 105.353 46.7503 106.176 46.2739 106.882C45.8163 107.555 45.2294 108.115 44.5525 108.525C43.9887 108.834 43.3886 109.06 42.7683 109.198C43.1854 109.332 43.5793 109.538 43.9347 109.807C44.1904 110.075 44.4141 110.377 44.6007 110.704C44.8132 111.019 44.9883 111.36 45.1221 111.721L46.8373 116.583H41.3715L39.4679 111.461C39.3369 110.973 39.096 110.527 38.7663 110.161C38.438 109.904 38.0402 109.769 37.6334 109.776H37.202L36.3141 116.562H31.4556L31.4409 116.569Z" fill="#999999"/>
<path fill-rule="evenodd" clip-rule="evenodd" d="M57.8186 110.222L56.8888 104.202L54.3883 110.222H57.8186ZM58.34 113.835H52.8659L51.7266 116.585H46.8032L54.8867 99.8604H60.1431L63.8163 116.6H58.7693L58.34 113.835Z" fill="#999999"/>
<path fill-rule="evenodd" clip-rule="evenodd" d="M68.4306 99.667H82.0427L81.5422 103.867H76.958L75.4083 116.741H70.9226L72.5058 103.867H67.9175L68.4306 99.667Z" fill="#999999"/>
<path fill-rule="evenodd" clip-rule="evenodd" d="M86.2489 108.229C85.9809 109.475 86.1054 110.782 86.6028 111.945C86.8263 112.312 87.137 112.61 87.5031 112.807C87.8692 113.004 88.2776 113.093 88.6865 113.066C89.1315 113.076 89.5733 112.983 89.982 112.795C90.3906 112.606 90.7566 112.325 91.055 111.972C91.8253 110.799 92.2709 109.418 92.3408 107.987C92.5983 106.801 92.4559 105.555 91.9388 104.47C91.7132 104.102 91.4007 103.805 91.0328 103.608C90.665 103.411 90.255 103.322 89.8446 103.35C89.4072 103.343 88.9739 103.441 88.5757 103.634C88.1775 103.828 87.8242 104.113 87.541 104.47C86.7832 105.557 86.3365 106.856 86.2552 108.209L86.2489 108.229ZM81.7758 108.206C81.963 105.757 82.9489 103.457 84.561 101.707C85.33 100.928 86.2366 100.32 87.2276 99.9209C88.2187 99.5214 89.2743 99.3377 90.3325 99.3804C91.3199 99.2974 92.3119 99.4609 93.2302 99.858C94.1485 100.255 94.9681 100.875 95.6245 101.669C96.2196 102.595 96.6308 103.642 96.8325 104.746C97.0342 105.849 97.0222 106.985 96.7972 108.083C96.6341 109.81 96.14 111.483 95.346 112.996C94.6543 114.234 93.6763 115.261 92.5063 115.977C91.2303 116.723 89.7921 117.092 88.3389 117.048C86.9736 117.106 85.6174 116.786 84.4018 116.118C83.3609 115.453 82.5658 114.424 82.1506 113.205C81.6308 111.604 81.4996 109.888 81.7695 108.218L81.7758 108.206Z" fill="#999999"/>
<path fill-rule="evenodd" clip-rule="evenodd" d="M104.307 103.547L103.167 112.868H104.259C104.958 112.922 105.659 112.799 106.307 112.512C106.78 112.199 107.161 111.748 107.404 111.212C107.777 110.276 108.008 109.283 108.091 108.269C108.367 107.024 108.267 105.718 107.806 104.537C107.518 104.171 107.149 103.889 106.733 103.715C106.317 103.541 105.866 103.482 105.423 103.542H104.305L104.307 103.547ZM100.286 99.667L106.945 99.6827C108.017 99.6281 109.086 99.847 110.064 100.321C110.807 100.724 111.424 101.352 111.835 102.128C112.291 102.96 112.57 103.889 112.654 104.849C112.762 105.95 112.739 107.062 112.585 108.157C112.464 109.626 112.119 111.065 111.565 112.415C111.115 113.362 110.511 114.215 109.781 114.934C109.154 115.555 108.407 116.019 107.592 116.295C106.709 116.579 105.793 116.734 104.87 116.757H98.2231L100.292 99.676L100.286 99.667Z" fill="#999999"/>
<path fill-rule="evenodd" clip-rule="evenodd" d="M118.864 108.257C118.594 109.503 118.717 110.809 119.211 111.973C119.438 112.337 119.75 112.632 120.115 112.828C120.48 113.025 120.887 113.116 121.295 113.094C121.744 113.107 122.19 113.015 122.602 112.824C123.013 112.632 123.381 112.347 123.678 111.987C124.447 110.82 124.888 109.443 124.949 108.018C125.205 106.831 125.063 105.586 124.547 104.501C124.321 104.134 124.008 103.837 123.641 103.64C123.273 103.444 122.863 103.354 122.453 103.38C122.018 103.378 121.588 103.478 121.192 103.671C120.797 103.865 120.445 104.148 120.162 104.501C119.398 105.586 118.953 106.89 118.885 108.246L118.864 108.257ZM114.391 108.228C114.569 105.78 115.55 103.477 117.161 101.729C117.931 100.949 118.839 100.341 119.831 99.9414C120.823 99.5419 121.88 99.3586 122.939 99.4022C123.926 99.3185 124.919 99.4817 125.837 99.8788C126.755 100.276 127.575 100.896 128.231 101.691C128.822 102.619 129.23 103.667 129.431 104.769C129.631 105.872 129.62 107.007 129.397 108.105C129.243 109.83 128.749 111.5 127.946 113.004C127.257 114.247 126.282 115.279 125.113 116.001C123.833 116.727 122.399 117.085 120.952 117.041C119.582 117.11 118.22 116.795 117 116.126C115.968 115.462 115.178 114.439 114.763 113.229C114.234 111.63 114.103 109.911 114.382 108.242L114.391 108.228Z" fill="#999999"/>
<path fill-rule="evenodd" clip-rule="evenodd" d="M132.612 99.6895H136.905L136.434 103.569L134.65 111.396H131.984L132.131 103.569L132.617 99.6895H132.612ZM131.176 112.586H135.197L134.675 116.763H130.654L131.176 112.586Z" fill="#999999"/>
<path d="M106.94 44.3535C107.195 44.3963 107.455 44.3833 107.704 44.3154H107.69C108.01 44.1952 108.299 43.9938 108.531 43.7284C108.764 43.4631 108.933 43.1416 109.024 42.7914C109.141 42.5004 109.195 42.185 109.183 41.8685C109.171 41.552 109.093 41.2424 108.955 40.9625C108.803 40.699 108.619 40.4592 108.406 40.2498L106.94 44.3535Z" fill="#999999"/>
<path d="M106.967 33.9493C106.987 34.2616 107.078 34.5639 107.231 34.8304L107.229 34.8371C107.36 35.0498 107.511 35.2467 107.681 35.4243L109.036 31.7218C108.708 31.661 108.37 31.7047 108.065 31.8473C107.84 31.9684 107.641 32.136 107.478 32.3403C107.315 32.5446 107.191 32.7815 107.114 33.0374C106.997 33.3242 106.946 33.6371 106.967 33.9493Z" fill="#999999"/>
<path fill-rule="evenodd" clip-rule="evenodd" d="M102.841 26.8913L75.5688 16.2184L93.8719 40.3523L84.913 52.5762L86.4821 59.2181H89.4972L103.04 53.6363L108.942 63.3581C111.015 61.976 114.47 60.5939 118.271 60.5939L117.693 48.4029L145.598 39.8861L117.561 31.8893L118.635 0.816406L102.841 26.8913ZM109.57 37.0761C110.451 37.8293 111.231 38.7069 111.891 39.685L111.895 39.6894C112.223 40.2883 112.413 40.962 112.449 41.6549C112.485 42.3478 112.367 43.04 112.104 43.6744C111.867 44.5204 111.418 45.2807 110.806 45.8733C110.194 46.4659 109.442 46.868 108.632 47.0363C107.756 47.2071 106.856 47.1743 105.993 46.9399L105.156 49.2731L104.607 49.049V49.0871L103.56 48.6567L103.575 48.6186L102.99 48.3743L103.828 46.077C102.968 45.5881 102.208 44.9207 101.592 44.1137C101.148 43.3314 100.902 42.4391 100.878 41.5244C100.854 40.6097 101.052 39.704 101.453 38.896L104.308 40.0862C104.108 40.769 104.011 41.4819 104.023 42.1974C104.124 42.7025 104.396 43.1496 104.787 43.4525L106.559 38.5554L106.31 38.3469C105.295 37.6334 104.513 36.5994 104.073 35.3885C103.79 34.3636 103.849 33.2653 104.241 32.2821C104.458 31.6135 104.807 31.0022 105.263 30.4891C105.671 30.0153 106.165 29.6342 106.714 29.3684C107.367 29.0386 108.088 28.8928 108.808 28.9448C109.193 28.9831 109.575 29.0581 109.947 29.169L110.544 27.5777L112.712 28.4742L112.115 30.0879C112.858 30.497 113.495 31.0968 113.968 31.8338C114.417 32.5125 114.693 33.3049 114.769 34.1326C114.845 34.9604 114.717 35.7949 114.399 36.5539L111.593 35.3952C111.759 34.8744 111.831 34.3243 111.803 33.7748C111.78 33.5451 111.713 33.323 111.605 33.1233C111.496 32.9236 111.35 32.7507 111.174 32.616L109.57 37.0761Z" fill="#999999"/>
<path d="M114.861 72.3419L119.243 79.4287L118.962 70.2688C116.934 70.6143 116.101 71.1203 114.861 72.3419Z" fill="#999999"/>
</svg>
