<svg width="224" height="50" viewBox="0 0 224 50" fill="none" xmlns="http://www.w3.org/2000/svg">
<path fill-rule="evenodd" clip-rule="evenodd" d="M66.5451 34.5852C64.0045 34.5852 62.3434 34.5126 60.3934 32.2778C57.2034 28.6215 57.9601 18.9983 65.777 18.77C69.8972 18.649 73.1542 22.3133 73.1542 26.6554C73.1542 30.6135 70.3837 34.5852 66.5451 34.5852ZM53.3276 39.079H58.3506V36.1713C59.7649 37.1185 60.7556 38.8837 64.2716 39.5025C72.2949 40.9152 78.7048 35.0031 78.7048 26.9192C78.7048 14.7393 66.5265 10.9257 60.157 15.7728C59.5116 16.2641 59.318 16.6675 58.6144 17.1387V0.749023H53.3276V39.079Z" fill="#999999"/>
<path fill-rule="evenodd" clip-rule="evenodd" d="M93.2437 18.4602C96.5958 18.4602 99.3236 20.4989 99.3236 24.2762H86.6354C86.8871 21.2581 89.9545 18.4602 93.2437 18.4602ZM80.8193 26.3908C80.8193 32.394 84.3401 36.8434 88.6289 38.6715C91.0589 39.7074 94.0803 40.0657 97.0614 39.4598C100.127 38.8369 101.702 37.3242 103.818 35.9067C103.548 34.8942 102.029 33.0572 101.439 31.9414C100.25 32.5707 99.6979 33.229 98.3643 33.889C93.8568 36.1229 87.8238 34.7385 86.3708 28.5045H104.61C104.61 25.5889 105.617 23.8858 103.735 20.1278C102.794 18.2472 102.748 18.3238 101.374 16.937C96.4466 11.9616 88.3369 13.3541 84.5942 17.4767C82.5071 19.7752 80.8185 23.1387 80.8185 26.39L80.8193 26.3908Z" fill="#999999"/>
<path fill-rule="evenodd" clip-rule="evenodd" d="M109.633 7.96564V14.2303C104.828 14.2303 105.668 13.371 105.668 18.4602C105.668 19.6348 106.902 19.2532 109.633 19.2532V29.563C109.633 33.6744 110.555 36.8297 113.24 38.3811C116.383 40.198 123.115 40.1367 123.115 38.5505V34.586L119.072 34.6812C116.641 34.4069 115.185 33.7284 115.185 30.3561V19.2532H122.322V14.2303H115.185V7.88657L109.633 7.96564Z" fill="#999999"/>
<path fill-rule="evenodd" clip-rule="evenodd" d="M15.2625 21.8962C10.133 21.8962 4.24922 19.3371 0.458984 19.2524V20.3101C3.47794 21.0136 12.3065 22.6675 14.4759 23.7397C18.4961 25.7276 21.3424 29.7204 21.3424 34.5844C21.3424 38.2423 18.7526 46.7014 18.6994 49.1233H19.7563C20.5235 45.8317 21.9717 37.5687 22.9584 35.1427C24.3081 31.8252 28.325 27.9761 32.9737 27.9761C39.156 27.9761 43.8676 30.2722 48.041 30.6199C48.1104 29.801 48.0378 30.1197 48.3049 29.5622C46.484 28.6885 37.2996 27.6123 34.0749 26.081C30.4444 24.3569 27.1568 20.4416 27.1568 15.0233C27.1568 12.724 28.6235 7.05882 29.1617 4.33998C29.3948 3.16048 29.7748 1.87044 29.7998 0.749023H28.7421C28.2032 3.06124 27.7595 5.24599 27.2674 7.73329C26.793 10.1318 26.3347 12.6861 25.5005 14.6901C24.6066 16.837 23.3819 18.2803 21.6474 19.5606C20.2064 20.624 17.6691 21.8971 15.2609 21.8971L15.2625 21.8962Z" fill="#999999"/>
<path fill-rule="evenodd" clip-rule="evenodd" d="M20.2847 35.6419C20.2847 31.224 16.8042 27.4612 12.5574 26.4511C11.3722 26.1695 8.64449 25.8613 7.33105 25.8613C7.47789 32.4398 12.1451 38.4188 17.9805 40.8625C19.5811 41.533 20.2838 42.9012 20.2838 35.6419H20.2847Z" fill="#999999"/>
<path fill-rule="evenodd" clip-rule="evenodd" d="M28.2153 13.9661C28.2153 17.9378 31.1004 21.2271 33.8474 22.6083C35.4457 23.4118 37.6272 23.5998 39.8297 23.8241C41.3529 23.979 41.7821 23.8491 40.2831 19.3449C38.6857 14.5445 33.6788 9.46023 29.6151 8.53405C28.1105 8.19117 28.534 9.2069 28.4501 10.5002C28.3751 11.6563 28.2153 12.4243 28.2153 13.9661Z" fill="#999999"/>
<path fill-rule="evenodd" clip-rule="evenodd" d="M25.3066 41.9869C31.7923 41.9869 37.965 37.0067 40.182 30.6921C40.3966 30.0813 40.3901 29.8151 40.6386 29.298C38.1788 29.298 36.2925 28.6332 34.257 28.9841C27.6987 30.1128 25.3066 34.8413 25.3066 41.9869Z" fill="#999999"/>
<path fill-rule="evenodd" clip-rule="evenodd" d="M8.125 20.5749C12.3533 20.5749 17.1738 22.1674 21.01 16.8064C22.7309 14.4022 23.1924 11.6277 23.1924 7.62207C19.87 8.39577 16.4041 8.80158 13.34 11.7794C11.2472 13.8125 8.125 17.2985 8.125 20.5749Z" fill="#999999"/>
<path fill-rule="evenodd" clip-rule="evenodd" d="M133.424 27.1831C133.424 21.5203 138.692 20.9564 141.029 23.0145C142.887 24.6514 144.052 31.9414 137.39 31.9414C135.237 31.9414 133.424 29.4864 133.424 27.1831ZM132.896 16.8733V14.7587H125.23V49.1233H133.689V37.7567C137.153 40.0762 140.035 40.5691 144.235 38.7861C145.243 38.3585 147.031 37.0717 147.768 36.2391C151.088 32.4884 152.067 26.6062 150.237 21.7381C148.735 17.7438 145.038 14.2295 140.563 14.2295C134.76 14.2295 135.681 15.008 132.896 16.8733Z" fill="#999999"/>
<path fill-rule="evenodd" clip-rule="evenodd" d="M210.084 31.9414C203.839 31.9414 204.555 22.1609 209.027 22.1609H210.614C214.394 22.1609 215.353 28.0931 213.196 30.5586C212.676 31.1524 211.027 31.9414 210.084 31.9414ZM196.867 25.8616C196.867 28.703 196.855 30.1528 198.18 32.7426C199.639 35.5929 201.764 37.3928 204.617 38.7305C209.526 41.0338 215.62 39.5292 219.009 36.1068C220.136 34.9685 221.158 33.9487 221.874 32.3634C224.073 27.4921 223.035 21.8124 219.541 18.2553C218.47 17.1653 217.542 16.3577 216.084 15.6317C206.588 10.9056 196.868 18.4013 196.868 25.8608L196.867 25.8616Z" fill="#999999"/>
<path fill-rule="evenodd" clip-rule="evenodd" d="M188.936 16.8741L188.934 14.7595C188.325 14.7595 181.006 14.7829 181.006 14.7829V39.079H189.465V28.7692C189.465 25.1718 190.499 22.5465 193.951 22.4174C197.758 22.2755 197.131 24.3021 197.131 14.7587C192.082 13.5824 191.435 15.2008 188.936 16.8741Z" fill="#999999"/>
<path fill-rule="evenodd" clip-rule="evenodd" d="M161.257 27.1831C161.257 21.5203 166.524 20.9564 168.861 23.0145C170.719 24.6514 171.884 31.9414 165.222 31.9414C163.069 31.9414 161.257 29.4864 161.257 27.1831ZM160.728 16.8733V14.7587H153.062V49.1233H161.521V37.7567C164.985 40.0762 167.867 40.5691 172.067 38.7861C173.075 38.3585 174.864 37.0717 175.6 36.2391C178.92 32.4884 179.9 26.6062 178.069 21.7381C176.567 17.7438 172.87 14.2295 168.395 14.2295C162.592 14.2295 163.513 15.008 160.728 16.8733Z" fill="#999999"/>
</svg>
