<svg width="221" height="52" viewBox="0 0 221 52" fill="none" xmlns="http://www.w3.org/2000/svg">
<path fill-rule="evenodd" clip-rule="evenodd" d="M84.8939 15.3931C88.1404 15.3931 91.6329 14.6206 94.6244 14.2015L123.73 10.1333L69.1147 28.3388C71.3188 28.2896 75.2931 27.1637 77.53 26.6402L127.607 15.5929C129.073 15.3931 133.585 17.448 135.056 18.225C134.926 12.3509 132.482 15.0903 136.965 9.21024C137.679 8.27372 138.399 7.60712 138.696 6.49314C136.76 6.49314 133.284 6.44244 132.048 5.04959C130.798 3.64183 130.206 1.20957 128.582 0.0195312C124.362 6.32015 127.183 4.24729 120.17 6.17103L90.8784 13.693C89.751 13.9749 89.1276 14.1359 87.9629 14.4193L85.1623 15.2603C85.1027 15.2857 84.9759 15.3394 84.8909 15.3931H84.8939Z" fill="#999999"/>
<path fill-rule="evenodd" clip-rule="evenodd" d="M127.372 44.5204H120.09C120.09 42.6861 120.548 41.1725 120.899 39.6663H129.394C129.306 40.7236 129.133 41.2232 128.861 42.37C128.547 43.6853 128.75 44.5219 127.371 44.5219L127.372 44.5204ZM115.08 29.46L131.418 29.5525L130.61 34.0024H122.114L122.879 29.9596C122.888 29.8835 114.989 29.8776 114.998 29.7985C113.696 36.1857 111.887 45.0229 111.079 48.8838C110.77 50.2111 109.845 51.8008 111.596 51.8008H128.588C135.741 51.8008 135.553 47.4388 136.992 41.1814C137.655 38.3062 137.614 38.43 136.274 36.4287C137.98 35.2864 138.024 34.6511 138.534 32.2174C140.988 20.5139 140.648 22.6747 116.45 22.6747C116.036 24.7073 115.08 29.4585 115.08 29.4585V29.46Z" fill="#999999"/>
<path fill-rule="evenodd" clip-rule="evenodd" d="M17.9472 32.7006L18.5467 41.2843H13.287C14.8096 38.2197 16.0085 35.5265 17.9457 32.7006H17.9472ZM26.7576 51.8142L18.9329 51.756C18.9329 51.756 18.9523 48.9524 18.9523 47.3523H10.0524L8.41648 51.8515L0.0966797 51.8082C4.93884 42.0404 10.2314 32.3486 15.2853 22.6732L24.7161 22.6255L26.7576 51.8112V51.8142Z" fill="#999999"/>
<path fill-rule="evenodd" clip-rule="evenodd" d="M147.39 36.9044C147.91 35.358 149.601 36.0246 156.094 36.0246C155.888 38.4926 155.465 38.1154 152.885 38.0751C151.316 38.0512 149.473 38.0602 147.906 38.0602C147.818 38.0602 146.894 42.7294 146.805 42.7294C146.805 42.7294 158.717 42.9008 161.756 42.9008C165.437 27.1053 166.248 29.551 145.171 29.551C141.077 29.551 140.616 33.8652 139.945 37.2713C139.293 40.5834 137.889 45.0856 137.889 48.5647C137.889 50.9075 139.537 51.8008 142.339 51.8008H158.116C159.691 51.8008 159.785 48.5886 160.544 45.3286H145.576C145.576 45.3286 146.65 39.0996 147.39 36.903V36.9044Z" fill="#999999"/>
<path fill-rule="evenodd" clip-rule="evenodd" d="M101.885 44.926H93.3891C93.6337 41.9897 95.0072 38.9669 95.0072 36.0261H103.907C103.373 37.1401 102.282 43.2215 101.885 44.926ZM102.778 51.8037H89.7489C87.4897 51.8037 85.299 50.6152 85.299 48.5677C85.299 46.8184 86.1102 44.2236 86.4145 42.8054C86.8588 40.731 87.09 39.1622 87.5672 37.0819C88.4754 33.13 88.6797 29.554 93.3891 29.554C114.549 29.554 113.013 27.1918 110.005 41.7198C108.372 49.6071 108.403 51.4458 102.778 51.8037Z" fill="#999999"/>
<path fill-rule="evenodd" clip-rule="evenodd" d="M44.8438 43.3065C44.3293 44.3802 44.4754 43.7389 44.4396 45.3301H29.0661C28.6844 49.9262 26.6518 51.3951 29.0512 51.8022H45.2479C47.7145 51.8022 48.7882 51.4443 50.0364 50.1171C51.5291 48.5289 51.3397 47.6088 51.8945 45.0975C53.7884 36.5257 52.4328 37.6426 38.3717 37.6426V35.6205H53.7437C53.9211 33.4835 54.7906 31.5493 54.9576 29.5525C50.6418 29.5525 46.3276 29.5525 42.0118 29.5525C31.4253 29.5525 32.5676 29.5152 30.7065 38.0826C29.2988 44.5666 33.783 43.308 44.8438 43.308V43.3065Z" fill="#999999"/>
<path fill-rule="evenodd" clip-rule="evenodd" d="M173.409 51.8022C175.021 51.6785 174.565 51.1521 174.971 49.2373C175.349 47.4522 175.513 47.4239 175.513 45.3301H171.063L173.086 35.6205C177.208 35.6205 177.591 36.2334 178.274 34.7391C178.395 34.4737 179.143 30.0729 179.155 29.5525H174.301C174.657 28.0209 175.39 25.3978 175.515 23.8886C173.761 23.8886 171.945 23.826 170.21 23.8424C166.699 23.8767 168.151 24.9459 165.561 36.1842C163.468 45.2571 160.738 51.8022 167.425 51.8022H173.412H173.409Z" fill="#999999"/>
<path fill-rule="evenodd" clip-rule="evenodd" d="M53.3381 48.5662C53.3381 50.8225 55.0754 51.5801 57.3481 51.8022H63.4533C64.6359 51.8022 64.7836 50.9105 65.0043 50.1171C66.7416 43.8911 65.0654 45.3301 61.0256 45.3301C61.5087 44.3235 63.0149 37.1639 63.0492 35.6205H68.3074C68.3522 33.6356 69.1157 31.2913 69.5213 29.5525H64.6672C64.7165 27.3752 65.477 26.2493 65.477 23.8886H58.1951L55.7301 35.9873C55.1872 38.6865 53.3395 46.204 53.3395 48.5662H53.3381Z" fill="#999999"/>
<path fill-rule="evenodd" clip-rule="evenodd" d="M192.909 41.6884V40.4745H198.573L198.212 41.7675L192.909 41.6884ZM201.389 51.8037L190.364 51.8008C187.725 51.5771 185.627 51.0253 185.627 49.7786C185.627 47.2404 186.735 43.6316 187.208 41.2455C188.584 34.2783 188.956 35.6205 201.811 35.6205C203.9 35.6205 204.72 36.1364 204.452 38.2019L202.884 45.7313L191.837 45.6299L191.695 46.5425L202.353 46.6633L201.387 51.8037H201.389Z" fill="#999999"/>
<path fill-rule="evenodd" clip-rule="evenodd" d="M73.3584 51.8022L76.8032 36.0246H86.5129C86.5129 34.0323 87.3092 31.3435 87.7268 29.5525H78.029L77.6756 29.9134L77.5503 29.5525H70.7352L66.1869 51.768L73.3584 51.8022Z" fill="#999999"/>
<path fill-rule="evenodd" clip-rule="evenodd" d="M203.427 48.9703C203.427 50.7315 204.642 51.498 206.541 51.8022H216.373C217.985 51.8022 217.636 49.8054 218.395 46.5425H209.495C209.851 45.011 210.584 42.3879 210.709 40.8787H219.609C220.01 39.1593 220.417 37.7798 220.417 35.6205C204.386 35.6205 206.489 33.9547 204.205 44.8947C203.931 46.213 203.426 47.4537 203.426 48.9688L203.427 48.9703Z" fill="#999999"/>
<path fill-rule="evenodd" clip-rule="evenodd" d="M183.199 51.8023C185.418 42.279 186.009 43.7121 179.154 43.7121C177.488 43.7121 177.148 47.23 176.581 50.141C176.381 51.1699 176.568 51.6218 177.275 51.8023H183.199Z" fill="#999999"/>
</svg>
