<svg width="210" height="66" viewBox="0 0 210 66" fill="none" xmlns="http://www.w3.org/2000/svg">
<g clip-path="url(#clip0_1425_593)">
<path d="M7.9026 55.5118C7.28088 55.1081 6.61875 54.907 5.48757 54.907C3.46737 54.907 2.12142 56.3751 2.12142 58.3381C2.12142 60.3971 3.6013 61.7627 5.42364 61.7627C6.29356 61.7627 6.51568 61.6775 6.83003 61.613V58.9558H4.98142V57.92H8.09201V62.4835C7.61048 62.6506 6.78318 62.8726 5.41078 62.8726C2.63823 62.8726 0.786133 61.0861 0.786133 58.3012C0.786133 55.597 2.75104 53.8037 5.42364 53.8037C6.70638 53.8037 7.27353 53.9909 8.00125 54.2415L7.9026 55.5118Z" fill="#999999"/>
<path d="M9.45752 56.3135H10.563V57.3069H10.5894C10.8977 56.6403 11.5766 56.165 12.2604 56.165C12.6096 56.165 12.7856 56.1998 13.0373 56.2496V57.3069C12.8242 57.2211 12.5828 57.1965 12.3826 57.1965C11.3254 57.1965 10.6348 58.2003 10.6348 59.8024V62.7213H9.45752V56.3135Z" fill="#999999"/>
<path d="M19.2671 62.7225H18.1245V61.7021H18.0958C17.7444 62.4348 16.889 62.8731 15.9999 62.8731C14.3418 62.8731 13.6011 61.8421 13.6011 60.1217V56.3145H14.7822V59.6279C14.7822 61.1241 15.1058 61.8568 16.139 61.9161C17.485 61.9161 18.0863 60.8358 18.0863 59.2781V56.3145H19.2669V62.7223L19.2671 62.7225Z" fill="#999999"/>
<path d="M23.6117 57.1153C22.3297 57.1153 21.7153 58.3379 21.7153 59.5284C21.7153 60.5964 22.2669 61.9155 23.5994 61.9155C24.8667 61.9155 25.3925 60.4972 25.3685 59.4939C25.3925 58.3379 24.8937 57.1153 23.6117 57.1153ZM20.5342 56.3131H21.6637V57.2207H21.6902C22.0074 56.7368 22.7322 56.165 23.8645 56.165C25.7223 56.165 26.628 57.683 26.628 59.405C26.628 61.1625 25.809 62.8722 23.8757 62.8722C22.7438 62.8722 22.1061 62.4338 21.7394 61.8408H21.7153V65.3618H20.5342V56.3129V56.3131Z" fill="#999999"/>
<path d="M30.3059 61.9163C31.6888 61.9163 32.3061 60.6589 32.3061 59.5171C32.3061 58.3023 31.5639 57.116 30.3059 57.116C29.0397 57.116 28.2946 58.3023 28.2946 59.5171C28.2946 60.6589 28.9113 61.9163 30.3059 61.9163ZM30.3059 56.166C32.2488 56.166 33.5578 57.5663 33.5578 59.5171C33.5578 61.3551 32.2286 62.8733 30.3059 62.8733C28.3737 62.8733 27.0396 61.3552 27.0396 59.5171C27.0396 57.5663 28.3473 56.166 30.3059 56.166Z" fill="#999999"/>
<path d="M37.3252 53.9502H42.242V55.0586H38.5824V57.6226H41.9107V58.7231H38.5824V61.6132H42.242V62.7222H37.3252V53.9502Z" fill="#999999"/>
<path d="M43.3818 56.3135H44.4862V57.2457H44.513C44.9653 56.5007 45.604 56.165 46.5457 56.165C47.2879 56.165 48.0269 56.5378 48.3642 57.4116C48.8047 56.4911 49.7763 56.165 50.3521 56.165C51.985 56.165 52.5769 57.2211 52.5769 58.6124V62.7215H51.393V58.9012C51.393 58.1103 51.2113 57.1158 50.2534 57.1158C49.0476 57.1158 48.5683 58.3014 48.5683 59.4937V62.7215H47.3861V58.9012C47.3861 58.1103 47.1996 57.1158 46.2437 57.1158C45.0366 57.1158 44.5597 58.3014 44.5597 59.4937V62.7215H43.3818V56.3137V56.3135Z" fill="#999999"/>
<path d="M56.8964 57.1153C55.6133 57.1153 55 58.3379 55 59.5284C55 60.5964 55.5526 61.9155 56.8835 61.9155C58.1532 61.9155 58.6774 60.4972 58.6533 59.4939C58.6774 58.3379 58.18 57.1153 56.8964 57.1153ZM53.8188 56.3131H54.9462V57.2207H54.9726C55.2894 56.7368 56.0169 56.165 57.1455 56.165C59.0094 56.165 59.9096 57.683 59.9096 59.405C59.9096 61.1625 59.0957 62.8722 57.1573 62.8722C56.0305 62.8722 55.3887 62.4338 55.0265 61.8408H55V65.3618H53.8188V56.3129V56.3131Z" fill="#999999"/>
<path d="M60.7534 56.3135H61.8567V57.3069H61.8829C62.1977 56.6403 62.8725 56.165 63.5513 56.165C63.9035 56.165 64.0815 56.1998 64.3332 56.2496V57.3069C64.1192 57.2211 63.8809 57.1965 63.6762 57.1965C62.6213 57.1965 61.9305 58.2003 61.9305 59.8024V62.7213H60.7534V56.3135Z" fill="#999999"/>
<path d="M69.0399 58.902C69.0399 57.9204 68.4637 57.1155 67.4433 57.1155C66.2919 57.1155 65.8148 58.0753 65.7229 58.902H69.0399ZM69.8067 62.4589C69.3566 62.617 68.8427 62.8731 67.7871 62.8731C65.5093 62.8731 64.4707 61.4895 64.4707 59.4061C64.4707 57.507 65.662 56.166 67.4681 56.166C69.6079 56.166 70.2952 57.7199 70.2952 59.7806H65.7231C65.7231 61.0481 66.7187 61.916 67.835 61.916C68.6125 61.916 69.5218 61.514 69.8069 61.274V62.459L69.8067 62.4589Z" fill="#999999"/>
<path d="M70.6609 61.4657C71.1272 61.7627 71.7921 61.9165 72.129 61.9165C72.6729 61.9165 73.3394 61.6894 73.3394 61.001C73.3394 59.8305 70.5601 59.9354 70.5601 58.1375C70.5601 56.8056 71.5534 56.166 72.8253 56.166C73.3725 56.166 73.8248 56.2792 74.2924 56.4148L74.1937 57.4412C73.9297 57.2808 73.2194 57.1155 72.9492 57.1155C72.3422 57.1155 71.8174 57.3734 71.8174 57.8981C71.8174 59.2059 74.5968 58.8276 74.5968 60.8735C74.5968 62.2454 73.5009 62.8726 72.3561 62.8726C71.7552 62.8726 71.1425 62.8087 70.5997 62.5228L70.6609 61.4655V61.4657Z" fill="#999999"/>
<path d="M79.0877 59.6666C78.8354 59.6666 78.59 59.6447 78.3388 59.6447C77.6964 59.6447 76.1123 59.7434 76.1123 60.8729C76.1123 61.553 76.7693 61.9157 77.3056 61.9157C78.4744 61.9157 79.0877 61.1874 79.0877 60.233V59.6668V59.6666ZM75.5835 56.7654C76.1794 56.4145 76.8803 56.165 77.6963 56.165C79.5271 56.165 80.2661 57.068 80.2661 58.8143V61.4649C80.2661 62.1913 80.298 62.5304 80.3193 62.7217H79.219V61.8909H79.1865C78.9124 62.2795 78.2857 62.8725 77.2038 62.8725C75.8231 62.8725 74.8584 62.271 74.8584 60.8729C74.8584 59.2657 76.617 58.7634 77.8329 58.7634C78.298 58.7634 78.6232 58.7634 79.0879 58.7904C79.0879 57.6839 78.6883 57.1154 77.5077 57.1154C76.8413 57.1154 76.1272 57.3732 75.6477 57.7697L75.5837 56.7656L75.5835 56.7654Z" fill="#999999"/>
<path d="M81.5234 56.3135H82.6318V57.3069H82.6548C82.9715 56.6403 83.6509 56.165 84.3303 56.165C84.6796 56.165 84.851 56.1998 85.1084 56.2496V57.3069C84.8887 57.2211 84.6533 57.1965 84.4531 57.1965C83.3963 57.1965 82.7035 58.2003 82.7035 59.8024V62.7213H81.5234V56.3135Z" fill="#999999"/>
<path d="M85.8238 56.3137H87.0039V62.721H85.8238V56.3137ZM87.0761 54.8836H85.7446V53.5469H87.0761V54.8836Z" fill="#999999"/>
<path d="M92.2289 59.6666C91.9761 59.6666 91.7226 59.6447 91.472 59.6447C90.8336 59.6447 89.2482 59.7434 89.2482 60.8729C89.2482 61.553 89.9019 61.9157 90.445 61.9157C91.6114 61.9157 92.2288 61.1874 92.2288 60.233V59.6668L92.2289 59.6666ZM88.7232 56.7654C89.3118 56.4145 90.0153 56.165 90.8338 56.165C92.6691 56.165 93.4095 57.068 93.4095 58.8143V61.4649C93.4095 62.1913 93.4341 62.5304 93.4555 62.7217H92.3524V61.8909H92.3259C92.0474 62.2795 91.4229 62.8725 90.3449 62.8725C88.962 62.8725 87.9927 62.271 87.9927 60.8729C87.9927 59.2657 89.7502 58.7634 90.9688 58.7634C91.4351 58.7634 91.7632 58.7634 92.2291 58.7904C92.2291 57.6839 91.8255 57.1154 90.6405 57.1154C89.9829 57.1154 89.2598 57.3732 88.7851 57.7697L88.7233 56.7656L88.7232 56.7654Z" fill="#999999"/>
<path d="M94.8169 53.3018H95.998V62.7221H94.8169V53.3018Z" fill="#999999"/>
<path d="M104.313 58.902C104.313 57.9204 103.731 57.1155 102.717 57.1155C101.559 57.1155 101.083 58.0753 100.997 58.902H104.313ZM105.081 62.4589C104.626 62.617 104.107 62.8731 103.054 62.8731C100.782 62.8731 99.7373 61.4895 99.7373 59.4061C99.7373 57.507 100.935 56.166 102.744 56.166C104.877 56.166 105.571 57.7199 105.571 59.7806H100.997C100.997 61.0481 101.99 61.916 103.106 61.916C103.883 61.916 104.789 61.514 105.081 61.274V62.459V62.4589Z" fill="#999999"/>
<path d="M106.407 56.3135H107.556V57.3326H107.576C107.926 56.6056 108.781 56.165 109.67 56.165C111.334 56.165 112.071 57.1965 112.071 58.9144V62.7213H110.892V59.4061C110.892 57.9139 110.562 57.184 109.537 57.1156C108.193 57.1156 107.587 58.2003 107.587 59.7559V62.7213H106.407V56.3135Z" fill="#999999"/>
<path d="M116.193 53.9502H117.451V61.6132H121.117V62.7222H116.193V53.9502Z" fill="#999999"/>
<path d="M121.78 56.3138H122.965V62.721H121.78V56.3138ZM122.661 53.6123H124.035L122.385 55.4207H121.543L122.661 53.6123Z" fill="#999999"/>
<path d="M124.382 56.3135H125.526V57.3326H125.548C125.9 56.6056 126.758 56.165 127.647 56.165C129.308 56.165 130.049 57.1965 130.049 58.9144V62.7213H128.868V59.4061C128.868 57.9139 128.538 57.184 127.51 57.1156C126.163 57.1156 125.567 58.2003 125.567 59.7559V62.7213H124.382V56.3135Z" fill="#999999"/>
<path d="M135.464 58.902C135.464 57.9204 134.883 57.1155 133.866 57.1155C132.709 57.1155 132.233 58.0753 132.142 58.902H135.464ZM136.224 62.4589C135.774 62.617 135.26 62.8731 134.204 62.8731C131.929 62.8731 130.888 61.4895 130.888 59.4061C130.888 57.507 132.084 56.166 133.888 56.166C136.026 56.166 136.714 57.7199 136.714 59.7806H132.142C132.142 61.0481 133.14 61.916 134.253 61.916C135.037 61.916 135.936 61.514 136.224 61.274V62.459V62.4589Z" fill="#999999"/>
<path d="M141.36 59.6666C141.112 59.6666 140.863 59.6447 140.606 59.6447C139.97 59.6447 138.39 59.7434 138.39 60.8729C138.39 61.553 139.039 61.9157 139.577 61.9157C140.751 61.9157 141.36 61.1874 141.36 60.233V59.6668L141.36 59.6666ZM137.859 56.7654C138.45 56.4145 139.151 56.165 139.97 56.165C141.805 56.165 142.545 57.068 142.545 58.8143V61.4649C142.545 62.1913 142.571 62.5304 142.595 62.7217H141.488V61.8909H141.467C141.191 62.2795 140.563 62.8725 139.48 62.8725C138.093 62.8725 137.131 62.271 137.131 60.8729C137.131 59.2657 138.89 58.7634 140.107 58.7634C140.573 58.7634 140.897 58.7634 141.36 58.7904C141.36 57.6839 140.965 57.1154 139.784 57.1154C139.117 57.1154 138.402 57.3732 137.92 57.7697L137.859 56.7656V56.7654Z" fill="#999999"/>
<path d="M150.642 55.2705C150.007 55.0238 149.65 54.9066 149 54.9066C148.297 54.9066 147.47 55.1566 147.47 56.0771C147.47 57.7616 151.234 57.3727 151.234 60.2617C151.234 62.1318 149.794 62.8728 148.028 62.8728C147.418 62.8728 146.817 62.6929 146.233 62.5101L146.359 61.3385C146.789 61.5134 147.543 61.7627 148.182 61.7627C148.903 61.7627 149.906 61.3659 149.906 60.3334C149.906 58.3734 146.137 58.9145 146.137 56.1884C146.137 54.6328 147.363 53.8037 148.949 53.8037C149.523 53.8037 150.217 53.9029 150.82 54.1142L150.642 55.2702L150.642 55.2705Z" fill="#999999"/>
<path d="M152.125 61.3125H153.534V62.7218H152.125V61.3125Z" fill="#999999"/>
<path d="M158.346 55.1302L156.596 59.4802H160.094L158.347 55.1302H158.346ZM157.732 53.9502H159.048L162.751 62.7214H161.385L160.492 60.5083H156.197L155.304 62.7214H153.99L157.732 53.9502Z" fill="#999999"/>
<path d="M163.204 61.3125H164.611V62.7218H163.204V61.3125Z" fill="#999999"/>
<path d="M47.8543 26.8998H68.3587C68.7146 19.8866 65.5423 16.3768 58.8335 16.3768C51.9665 16.3768 48.3099 19.8865 47.8541 26.8998H47.8543ZM74.8064 32.7712H47.8543C47.8543 40.9524 53.0126 45.0512 63.3328 45.0512C66.8632 45.0512 70.3927 44.6659 73.9292 43.8991V49.6181C70.3927 50.3837 66.0975 50.7616 61.0451 50.7616C47.5495 50.7616 40.8018 43.9406 40.8018 30.2941C40.8018 17.2568 47.1956 10.7402 59.9744 10.7402C72.2241 10.7402 77.166 18.0819 74.8064 32.7712Z" fill="#999999"/>
<path d="M87.9305 50.7617H80.8779V0.508789H87.9305V50.7617Z" fill="#999999"/>
<path d="M95.1235 48.854V42.7561C99.5692 44.2802 104.194 45.05 108.999 45.05C115.374 45.05 118.569 43.1395 118.569 39.3288C118.569 35.7697 116.475 33.9911 112.279 33.9911H105.802C97.4072 33.9911 93.2163 30.0497 93.2163 22.1715C93.2163 14.5482 98.7671 10.7393 109.88 10.7393C114.653 10.7393 119.262 11.3738 123.712 12.6454V18.7422C119.262 17.223 114.653 16.4567 109.88 16.4567C103.216 16.4567 99.8905 18.3621 99.8905 22.1717C99.8905 25.7335 101.861 27.5094 105.802 27.5094H112.279C121.174 27.5094 125.618 31.4548 125.618 39.3289C125.618 46.9493 120.08 50.7612 108.999 50.7612C104.194 50.7612 99.5692 50.1255 95.1235 48.854Z" fill="#999999"/>
<path fill-rule="evenodd" clip-rule="evenodd" d="M157.575 41.9192C154.7 44.0006 150.829 45.05 145.948 45.05C140.607 45.05 137.945 42.7561 137.945 38.1807C137.945 36.0616 138.685 34.4675 140.159 33.3872C141.653 32.4408 143.442 32.4124 143.442 32.4124H157.258C157.357 32.4124 157.499 32.3933 157.575 32.4658V41.9192H157.575ZM164.628 26.1767V23.5483C164.628 15.0091 158.684 10.7393 146.788 10.7393C142.666 10.7393 138.45 11.3738 134.132 12.6463V18.3613C138.45 17.0951 142.666 16.4565 146.788 16.4565C153.977 16.4565 157.575 18.6292 157.575 22.9742V25.9839L148.836 26.003C148.277 25.9935 147.71 25.988 147.128 25.988C136.306 25.988 130.889 30.0879 130.889 38.2942C130.889 46.6058 135.909 50.7614 145.948 50.7614C150.648 50.7614 154.739 49.8213 158.22 47.9411L161.039 50.7614H164.628V32.2726V26.1768V26.1767Z" fill="#999999"/>
<path d="M23.7802 51.0969C8.55723 51.0969 0.831543 44.0532 0.831543 30.1572C0.831543 16.9731 8.29781 10.2871 23.0194 10.2871C27.1581 10.2871 31.0552 10.8473 34.6183 11.9448L35.342 12.1679V12.8855V17.171V18.6066L33.9198 18.0944C30.5776 16.8914 27.101 16.282 23.5824 16.282C13.1962 16.282 8.14532 20.8221 8.14532 30.1574C8.14532 40.2158 13.1115 45.1039 23.3334 45.1039C24.7102 45.1039 26.2489 44.956 27.9077 44.6598L28.031 44.6407V44.518V32.7465V32.6001H27.8875H23.1714H22.1238V28.064V27.0741L23.1842 27.0536H34.297H35.3464V28.0451V32.6473L35.342 48.3445V49.0179L34.6716 49.2618C31.3154 50.4816 27.6525 51.0972 23.7804 51.0972L23.7802 51.0969Z" fill="#999999"/>
<path d="M186.027 23.9739L171.284 18.5903L177.206 25.9833H164.629V32.4124H179.942L171.396 43.3927L186.186 37.6816L195.056 50.7907L194.243 35.0167L209.471 30.6684L194.127 26.5313L194.73 10.7002L186.027 23.9739Z" fill="#999999"/>
</g>
<defs>
<clipPath id="clip0_1425_593">
<rect width="208.685" height="64.8534" fill="white" transform="translate(0.786133 0.508789)"/>
</clipPath>
</defs>
</svg>
