<svg width="222" height="78" viewBox="0 0 222 78" fill="none" xmlns="http://www.w3.org/2000/svg">
<path d="M40.3455 56.9343C40.3455 56.9343 42.1716 55.4756 42.3801 54.7334C42.6228 53.8709 42.2466 52.7812 41.9221 51.8413C41.9097 51.8053 41.8973 51.7696 41.8851 51.7341L35.7621 52.549L40.3455 56.9343Z" fill="#999999"/>
<path fill-rule="evenodd" clip-rule="evenodd" d="M81.5957 29.5998L54.4798 24.7383L41.4772 0.451601C41.3689 0.249206 41.0785 0.249206 40.9702 0.451601L27.9671 24.7383L0.850463 29.5998C0.62493 29.6407 0.535175 29.9164 0.694091 30.0821L19.7815 49.9614L16.027 77.2438C15.996 77.4711 16.2307 77.6417 16.4374 77.5415L41.2275 65.5384L66.0186 77.5415C66.2251 77.6417 66.46 77.4711 66.4288 77.2438L62.6733 49.9527L81.752 30.0819C81.911 29.9161 81.8217 29.6402 81.5957 29.5998ZM80.6333 29.8256L51.3623 28.958L41.493 1.38678C41.4012 1.13607 41.0462 1.13607 40.9539 1.38678L31.9893 26.4322L37.8641 27.5283C38.2099 27.5924 38.5089 27.8088 38.679 28.1169L43.1421 36.215L50.6203 41.4435C50.9054 41.642 51.0061 42.0163 50.8606 42.3319L46.8292 51.0488L47.9505 54.2175L43.4816 61.7013L65.4071 76.6645C65.6301 76.813 65.9174 76.6022 65.8422 76.3447L57.6286 48.2425L80.8019 30.3387C81.0116 30.1729 80.901 29.8355 80.6338 29.8258L80.6333 29.8256ZM37.6648 36.0317L46.9025 42.1638C47.3701 42.4737 47.5087 43.0984 47.2145 43.5772L43.1142 50.2527L44.801 54.1697L41.2281 65.5381L36.5689 63.339L17.0009 76.681C16.7833 76.8295 16.4977 76.632 16.5595 76.3759L24.8191 48.2432L17.455 42.5503L28.7604 45.0868L24.7809 53.2289L33.0735 49.4139C33.4119 49.5642 33.7908 49.7551 34.1682 49.9453C34.8578 50.2929 35.5424 50.6379 35.966 50.7277C36.928 50.932 37.9987 50.6835 39.0488 50.4397C39.3653 50.3662 39.68 50.2932 39.9893 50.2331C40.5416 50.1256 41.2354 49.8975 41.5306 49.4848C42.0693 48.7319 42.5133 47.9114 42.9732 47.0615C43.1605 46.7154 43.3505 46.3644 43.5505 46.0111L40.8396 44.3634C40.4304 44.1147 40.4948 43.5027 40.9458 43.3443L44.248 42.1874L38.1215 37.5979C37.8341 37.3833 37.6648 37.0454 37.6648 36.6864V36.0317ZM25.6175 27.6305L1.76128 29.7882C1.50142 29.8113 1.4048 30.1421 1.61126 30.3018L17.455 42.5503L28.6707 35.5086L25.6175 27.6305L36.5079 34.4598L34.9464 29.5278C34.9004 29.3829 34.7776 29.2753 34.6284 29.2484L25.6175 27.6305ZM33.0423 37.0963L37.6839 40.2375C37.7965 40.3735 37.647 40.5845 37.5077 40.5431L35.0377 39.6242C34.5724 39.4469 33.8938 39.2903 33.6029 39.5092C32.2668 40.5125 31.2844 39.8873 30.0302 39.0892C29.8435 38.9704 29.6508 38.8478 29.45 38.7261C29.45 38.7261 32.9408 37.1947 33.0423 37.0963Z" fill="#999999"/>
<path d="M82.7729 59.7675L85.9684 55.9501C87.718 57.474 89.9885 58.5218 92.0136 58.5218C94.3363 58.5218 95.4725 57.6075 95.4725 56.1465C95.4725 54.5969 94.0735 54.0992 91.9238 53.2159L88.7253 51.8518C86.1755 50.8143 83.7588 48.7195 83.7588 45.1442C83.7588 41.0654 87.4014 37.8088 92.5245 37.8088C95.3585 37.8088 98.3218 38.9257 100.441 41.0341L97.6331 44.5405C96.0112 43.2963 94.4701 42.6126 92.5245 42.6126C90.6057 42.6126 89.3851 43.4115 89.3851 44.8196C89.3851 46.3294 90.995 46.8775 93.1429 47.7325L96.2787 49.0027C99.284 50.218 101.161 52.2194 101.161 55.6976C101.161 59.7844 97.753 63.3257 91.8889 63.3257C88.6864 63.3257 85.2833 62.113 82.7729 59.7675Z" fill="#999999"/>
<path d="M104.588 56.0614V48.4936H102.03V44.3515L104.899 44.1386L105.548 39.1635H110.139V44.1386H114.63V48.4936H110.139V55.9944C110.139 58.1175 111.103 58.9704 112.564 58.9704C113.181 58.9704 113.852 58.7929 114.345 58.6149L115.221 62.6461C114.226 62.9612 112.875 63.3257 111.057 63.3257C106.428 63.3257 104.588 60.4022 104.588 56.0614Z" fill="#999999"/>
<path d="M127.945 57.43V54.1577C123.998 54.6902 122.71 55.8186 122.71 57.2345C122.71 58.4424 123.54 59.0327 124.859 59.0327C126.116 59.0327 126.959 58.4114 127.945 57.43ZM117.395 57.6769C117.395 53.7295 120.535 51.5928 127.945 50.8107C127.833 49.1725 127.016 48.1031 124.983 48.1031C123.411 48.1031 121.842 48.7641 120.025 49.7951L118.053 46.151C120.43 44.698 123.109 43.6853 126.054 43.6853C130.843 43.6853 133.496 46.4215 133.496 52.1622V62.8726H128.967L128.567 60.9539H128.43C126.853 62.3393 125.085 63.3257 122.98 63.3257C119.563 63.3257 117.395 60.8325 117.395 57.6766L117.395 57.6769Z" fill="#999999"/>
<path d="M137.442 44.1389H141.97L142.371 47.4132H142.507C143.872 44.9115 145.919 43.6859 147.83 43.6859C148.901 43.6859 149.523 43.8238 150.065 44.0636L149.14 48.8542C148.474 48.6902 147.923 48.5523 147.119 48.5523C145.707 48.5523 143.992 49.4628 142.993 52.0169V62.8729H137.442V44.1389Z" fill="#999999"/>
<path d="M161.209 50.1052C164.269 50.1052 165.716 48.7416 165.716 46.1787C165.716 43.6032 164.069 42.6794 161.058 42.6794H158.496V50.1049L161.209 50.1052ZM152.932 38.2618H161.387C166.802 38.2618 171.17 40.1989 171.17 46.1787C171.17 51.9634 166.754 54.5227 161.539 54.5227H158.496V62.8729H152.932L152.932 38.2618Z" fill="#999999"/>
<path d="M174.617 57.0511V36.4189H180.168V57.2776C180.168 58.4684 180.719 58.8461 181.172 58.8461C181.385 58.8461 181.536 58.8461 181.851 58.7702L182.513 62.8632C181.9 63.1257 180.989 63.3257 179.727 63.3257C175.918 63.3257 174.617 60.8416 174.617 57.0511Z" fill="#999999"/>
<path d="M195.46 57.43V54.1577C191.513 54.6902 190.226 55.8186 190.226 57.2345C190.226 58.4424 191.055 59.0327 192.375 59.0327C193.631 59.0327 194.475 58.4114 195.46 57.43ZM184.91 57.6769C184.91 53.7295 188.05 51.5928 195.46 50.8107C195.349 49.1725 194.532 48.1031 192.498 48.1031C190.926 48.1031 189.358 48.7641 187.541 49.7951L185.568 46.151C187.946 44.698 190.624 43.6853 193.57 43.6853C198.358 43.6853 201.012 46.4215 201.012 52.1622V62.8726H196.483L196.083 60.9539H195.945C194.369 62.3393 192.6 63.3257 190.495 63.3257C187.079 63.3257 184.91 60.8328 184.91 57.6769Z" fill="#999999"/>
<path d="M204.034 69.82L205.02 65.5894C205.367 65.678 205.877 65.8292 206.282 65.8292C208.112 65.8292 209.075 64.8215 209.559 63.3694L209.839 62.3921L202.611 44.1389H208.188L210.866 52.2C211.409 53.8963 211.852 55.6739 212.345 57.5088H212.497C212.914 55.7357 213.332 53.959 213.798 52.2L216.071 44.1389H221.387L214.883 63.0761C213.106 67.7678 211.107 70.1977 206.704 70.1977C205.54 70.1977 204.798 70.0462 204.034 69.82Z" fill="#999999"/>
</svg>
