<svg width="200" height="40" viewBox="0 0 200 40" fill="none" xmlns="http://www.w3.org/2000/svg">
<g clip-path="url(#clip0_2228_5332)">
<path d="M193.496 1.1167H199.266L189.984 13.4521L199.266 25.6536L193.495 25.6677L187.146 17.2239L180.793 25.6674L175.034 25.6536L184.262 13.3887L175.034 1.1167H180.6L187.083 9.63926L193.496 1.1167Z" fill="white"/>
<path fill-rule="evenodd" clip-rule="evenodd" d="M93.6019 26.4337C100.936 26.4337 106.882 20.5162 106.882 13.2168C106.882 5.91718 100.936 0 93.6019 0C86.2673 0 80.3213 5.91718 80.3213 13.2168C80.3213 20.5162 86.2673 26.4337 93.6019 26.4337ZM93.6019 21.8367C98.3853 21.8367 102.263 17.9773 102.263 13.2168C102.263 8.45615 98.3853 4.59699 93.6019 4.59699C88.8185 4.59699 84.9407 8.45615 84.9407 13.2168C84.9407 17.9773 88.8185 21.8367 93.6019 21.8367Z" fill="white"/>
<path d="M167.319 1.14941H148.842V25.6678H167.319V21.4537H153.461V15.3243H166.164V11.1101H153.461V5.36357H167.319V1.14941Z" fill="white"/>
<path d="M116.122 1.14941H120.741L133.829 18.4156V1.14941H138.449V25.6678H133.83H133.829L120.741 8.40139V25.6678H116.122V1.14941Z" fill="white"/>
<path d="M69.3509 1.14941H75.6105L65.2813 11.8973L75.746 25.6731L70.121 25.6678L62.1265 15.1801L57.9953 19.4786V25.6678H53.376V1.14941H57.9953V12.9783L69.3509 1.14941Z" fill="white"/>
<path d="M199.052 32.5972V39.8412H198.199L194.233 34.1533H194.162V39.8412H193.28V32.5972H194.133L198.114 38.2988H198.185V32.5972H199.052Z" fill="white"/>
<path d="M182.624 36.2196C182.624 36.9836 182.486 37.644 182.208 38.2005C181.931 38.7569 181.551 39.1863 181.067 39.4879C180.584 39.7899 180.032 39.941 179.411 39.941C178.79 39.941 178.238 39.7899 177.755 39.4879C177.271 39.1863 176.891 38.7569 176.614 38.2005C176.337 37.644 176.198 36.9836 176.198 36.2196C176.198 35.4556 176.337 34.7955 176.614 34.2388C176.891 33.6823 177.271 33.2534 177.755 32.9514C178.238 32.6496 178.79 32.4985 179.411 32.4985C180.032 32.4985 180.584 32.6496 181.067 32.9514C181.551 33.2534 181.931 33.6823 182.208 34.2388C182.486 34.7955 182.624 35.4556 182.624 36.2196ZM181.771 36.2196C181.771 35.5923 181.665 35.0631 181.455 34.6315C181.246 34.1999 180.963 33.8736 180.605 33.6517C180.25 33.4301 179.852 33.3193 179.411 33.3193C178.97 33.3193 178.571 33.4301 178.213 33.6517C177.858 33.8736 177.575 34.1999 177.364 34.6315C177.155 35.0631 177.051 35.5923 177.051 36.2196C177.051 36.8469 177.155 37.3764 177.364 37.808C177.575 38.2396 177.858 38.5662 178.213 38.7878C178.571 39.0094 178.97 39.1202 179.411 39.1202C179.852 39.1202 180.25 39.0094 180.605 38.7878C180.963 38.5662 181.246 38.2396 181.455 37.808C181.665 37.3764 181.771 36.8469 181.771 36.2196Z" fill="white"/>
<path d="M165.542 32.5972V39.8412H164.66V32.5972H165.542Z" fill="white"/>
<path d="M148.544 33.3752V32.5972H154.003V33.3752H151.714V39.8412H150.833V33.3752H148.544Z" fill="white"/>
<path d="M132.557 39.8412H131.633L134.305 32.5972H135.215L137.888 39.8412H136.964L134.789 33.7429H134.732L132.557 39.8412ZM132.898 37.0114H136.623V37.7895H132.898V37.0114Z" fill="white"/>
<path d="M115.645 32.5972L117.806 38.6951H117.891L120.052 32.5972H120.976L118.303 39.8412H117.393L114.721 32.5972H115.645Z" fill="white"/>
<path d="M104.065 36.2196C104.065 36.9836 103.926 37.644 103.649 38.2005C103.372 38.7569 102.991 39.1863 102.508 39.4879C102.025 39.7899 101.472 39.941 100.852 39.941C100.231 39.941 99.6787 39.7899 99.1953 39.4879C98.7122 39.1863 98.3319 38.7569 98.0544 38.2005C97.7773 37.644 97.6387 36.9836 97.6387 36.2196C97.6387 35.4556 97.7773 34.7955 98.0544 34.2388C98.3319 33.6823 98.7122 33.2534 99.1953 32.9514C99.6787 32.6496 100.231 32.4985 100.852 32.4985C101.472 32.4985 102.025 32.6496 102.508 32.9514C102.991 33.2534 103.372 33.6823 103.649 34.2388C103.926 34.7955 104.065 35.4556 104.065 36.2196ZM103.212 36.2196C103.212 35.5923 103.106 35.0631 102.895 34.6315C102.687 34.1999 102.403 33.8736 102.046 33.6517C101.69 33.4301 101.293 33.3193 100.852 33.3193C100.411 33.3193 100.012 33.4301 99.6538 33.6517C99.2984 33.8736 99.0154 34.1999 98.8045 34.6315C98.5961 35.0631 98.4916 35.5923 98.4916 36.2196C98.4916 36.8469 98.5961 37.3764 98.8045 37.808C99.0154 38.2396 99.2984 38.5662 99.6538 38.7878C100.012 39.0094 100.411 39.1202 100.852 39.1202C101.293 39.1202 101.69 39.0094 102.046 38.7878C102.403 38.5662 102.687 38.2396 102.895 37.808C103.106 37.3764 103.212 36.8469 103.212 36.2196Z" fill="white"/>
<path d="M86.982 32.5972V39.8412H86.1289L82.1626 34.1533H82.0914V39.8412H81.21V32.5972H82.0629L86.0438 38.2988H86.1147V32.5972H86.982Z" fill="white"/>
<path d="M70.5533 32.5972V39.8412H69.7002L65.7337 34.1533H65.6627V39.8412H64.7812V32.5972H65.6341L69.6151 38.2988H69.686V32.5972H70.5533Z" fill="white"/>
<path d="M54.1247 32.5972V39.8412H53.2432V32.5972H54.1247Z" fill="white"/>
<path d="M23.1935 19.1372L14.7021 27.5879L26.106 39.9999H43.0582L23.1935 19.1372Z" fill="url(#paint0_linear_2228_5332)"/>
<path d="M43.3607 1.04736L23.3263 19.5333L14.7021 10.6865L25.9799 1.04736H43.3607Z" fill="url(#paint1_linear_2228_5332)"/>
<path d="M0 1.04736L1.02028e-05 39.8345L11.916 29.1723L11.8665 1.04736H0Z" fill="url(#paint2_linear_2228_5332)"/>
<path d="M0 17.9111V39.8343L11.9161 29.1721L0 17.9111Z" fill="url(#paint3_linear_2228_5332)"/>
<path d="M14.7021 10.6865V27.5878L23.4589 19.4014L14.7021 10.6865Z" fill="url(#paint4_linear_2228_5332)"/>
</g>
<defs>
<linearGradient id="paint0_linear_2228_5332" x1="19.3458" y1="23.4946" x2="36.6465" y2="40.2151" gradientUnits="userSpaceOnUse">
<stop stop-color="#0551A4"/>
<stop offset="0.463462" stop-color="#03448E"/>
<stop offset="1" stop-color="#001A53"/>
</linearGradient>
<linearGradient id="paint1_linear_2228_5332" x1="35.9306" y1="1.04736" x2="14.7982" y2="21.0871" gradientUnits="userSpaceOnUse">
<stop offset="0.0635936" stop-color="#00ADED"/>
<stop offset="0.380737" stop-color="#0071AC"/>
<stop offset="0.635197" stop-color="#002F6B"/>
</linearGradient>
<linearGradient id="paint2_linear_2228_5332" x1="12.0488" y1="1.31132" x2="0.203768" y2="28.6857" gradientUnits="userSpaceOnUse">
<stop offset="0.137971" stop-color="#00559F"/>
<stop offset="0.390766" stop-color="#024D9C"/>
<stop offset="0.75075" stop-color="#041C54"/>
</linearGradient>
<linearGradient id="paint3_linear_2228_5332" x1="5.94559" y1="23.098" x2="0.157548" y2="39.8846" gradientUnits="userSpaceOnUse">
<stop offset="0.13847" stop-color="#0768B2"/>
<stop offset="0.490175" stop-color="#008ED4"/>
<stop offset="1" stop-color="#15AEEC"/>
</linearGradient>
<linearGradient id="paint4_linear_2228_5332" x1="19.744" y1="15.7042" x2="12.2259" y2="25.2466" gradientUnits="userSpaceOnUse">
<stop stop-color="#16ADEC"/>
<stop offset="0.285653" stop-color="#0097D9"/>
<stop offset="0.719442" stop-color="#006BB1"/>
</linearGradient>
<clipPath id="clip0_2228_5332">
<rect width="200" height="40" fill="white"/>
</clipPath>
</defs>
</svg>
